<svg width="2351px" height="188px"
 viewBox="0.00 0.00 2351.47 188.00" xmlns="http://www.w3.org/2000/svg" xmlns:xlink="http://www.w3.org/1999/xlink">
<g id="graph0" class="graph" transform="scale(1.0 1.0) rotate(0.0) translate(4.0 184.0)">
<polygon fill="white" stroke="transparent" points="-4,4 -4,-184 2347.47,-184 2347.47,4 -4,4"/>
<!-- bluetooth -->
<g id="node1" class="node">
<title>bluetooth</title>
<ellipse fill="none" stroke="black" cx="47.52" cy="-90" rx="47.53" ry="18"/>
<text text-anchor="middle" x="47.52" y="-85.8" font-family="Times,serif" font-size="14.00">bluetooth</text>
</g>
<!-- charts -->
<g id="node2" class="node">
<title>charts</title>
<ellipse fill="none" stroke="black" cx="70.52" cy="-18" rx="34.19" ry="18"/>
<text text-anchor="middle" x="70.52" y="-13.8" font-family="Times,serif" font-size="14.00">charts</text>
</g>
<!-- bluetooth&#45;&gt;charts -->
<g id="edge1" class="edge">
<title>bluetooth&#45;&gt;charts</title>
<path fill="none" stroke="black" d="M53.08,-72.05C55.71,-64.06 58.91,-54.33 61.84,-45.4"/>
<polygon fill="black" stroke="black" points="65.2,-46.38 65,-35.79 58.55,-44.2 65.2,-46.38"/>
</g>
<!-- photo -->
<g id="node3" class="node">
<title>photo</title>
<ellipse fill="none" stroke="black" cx="222.52" cy="-90" rx="33.07" ry="18"/>
<text text-anchor="middle" x="222.52" y="-85.8" font-family="Times,serif" font-size="14.00">photo</text>
</g>
<!-- image -->
<g id="node4" class="node">
<title>image</title>
<ellipse fill="none" stroke="black" cx="170.52" cy="-18" rx="34.77" ry="18"/>
<text text-anchor="middle" x="170.52" y="-13.8" font-family="Times,serif" font-size="14.00">image</text>
</g>
<!-- photo&#45;&gt;image -->
<g id="edge2" class="edge">
<title>photo&#45;&gt;image</title>
<path fill="none" stroke="black" d="M210.72,-73.12C204.23,-64.38 196.04,-53.35 188.74,-43.54"/>
<polygon fill="black" stroke="black" points="191.4,-41.25 182.63,-35.31 185.78,-45.42 191.4,-41.25"/>
</g>
<!-- video -->
<g id="node5" class="node">
<title>video</title>
<ellipse fill="none" stroke="black" cx="273.52" cy="-18" rx="32.48" ry="18"/>
<text text-anchor="middle" x="273.52" y="-13.8" font-family="Times,serif" font-size="14.00">video</text>
</g>
<!-- photo&#45;&gt;video -->
<g id="edge3" class="edge">
<title>photo&#45;&gt;video</title>
<path fill="none" stroke="black" d="M234.09,-73.12C240.45,-64.38 248.49,-53.35 255.64,-43.54"/>
<polygon fill="black" stroke="black" points="258.58,-45.45 261.64,-35.31 252.92,-41.33 258.58,-45.45"/>
</g>
<!-- root -->
<g id="node6" class="node">
<title>root</title>
<ellipse fill="none" stroke="black" cx="986.52" cy="-162" rx="27" ry="18"/>
<text text-anchor="middle" x="986.52" y="-157.8" font-family="Times,serif" font-size="14.00">root</text>
</g>
<!-- root&#45;&gt;bluetooth -->
<g id="edge5" class="edge">
<title>root&#45;&gt;bluetooth</title>
<path fill="none" stroke="black" d="M959.38,-161.4C851.25,-162.55 440.97,-162.85 109.52,-108 104.08,-107.1 98.43,-105.92 92.86,-104.59"/>
<polygon fill="black" stroke="black" points="93.53,-101.15 82.97,-102.08 91.8,-107.93 93.53,-101.15"/>
</g>
<!-- root&#45;&gt;charts -->
<g id="edge7" class="edge">
<title>root&#45;&gt;charts</title>
<path fill="none" stroke="black" d="M959.58,-160.38C825.74,-157.15 235.83,-141.12 161.52,-108 130.47,-94.16 103.88,-64.83 87.6,-43.61"/>
<polygon fill="black" stroke="black" points="90.25,-41.3 81.47,-35.36 84.63,-45.48 90.25,-41.3"/>
</g>
<!-- root&#45;&gt;photo -->
<g id="edge18" class="edge">
<title>root&#45;&gt;photo</title>
<path fill="none" stroke="black" d="M959.49,-159.99C845.69,-155.59 405.16,-136.97 269.52,-108 265.62,-107.17 261.61,-106.09 257.65,-104.87"/>
<polygon fill="black" stroke="black" points="258.6,-101.5 248,-101.65 256.38,-108.14 258.6,-101.5"/>
</g>
<!-- root&#45;&gt;image -->
<g id="edge13" class="edge">
<title>root&#45;&gt;image</title>
<path fill="none" stroke="black" d="M959.16,-161.24C824.7,-162.13 237.95,-162.84 180.52,-108 164.31,-92.53 163.18,-66.27 165.29,-46.28"/>
<polygon fill="black" stroke="black" points="168.78,-46.59 166.67,-36.2 161.85,-45.64 168.78,-46.59"/>
</g>
<!-- root&#45;&gt;video -->
<g id="edge25" class="edge">
<title>root&#45;&gt;video</title>
<path fill="none" stroke="black" d="M959.58,-160.66C839.31,-158.89 354.94,-149.24 302.52,-108 283.92,-93.37 277.09,-66.59 274.67,-46.21"/>
<polygon fill="black" stroke="black" points="278.15,-45.88 273.76,-36.24 271.18,-46.51 278.15,-45.88"/>
</g>
<!-- audio -->
<g id="node7" class="node">
<title>audio</title>
<ellipse fill="none" stroke="black" cx="343.52" cy="-90" rx="32.48" ry="18"/>
<text text-anchor="middle" x="343.52" y="-85.8" font-family="Times,serif" font-size="14.00">audio</text>
</g>
<!-- root&#45;&gt;audio -->
<g id="edge4" class="edge">
<title>root&#45;&gt;audio</title>
<path fill="none" stroke="black" d="M959.34,-161.52C873.54,-162.56 601.31,-161.15 384.52,-108 382.03,-107.39 379.49,-106.65 376.97,-105.83"/>
<polygon fill="black" stroke="black" points="377.98,-102.47 367.39,-102.33 375.58,-109.05 377.98,-102.47"/>
</g>
<!-- calendar -->
<g id="node8" class="node">
<title>calendar</title>
<ellipse fill="none" stroke="black" cx="437.52" cy="-90" rx="43.98" ry="18"/>
<text text-anchor="middle" x="437.52" y="-85.8" font-family="Times,serif" font-size="14.00">calendar</text>
</g>
<!-- root&#45;&gt;calendar -->
<g id="edge6" class="edge">
<title>root&#45;&gt;calendar</title>
<path fill="none" stroke="black" d="M959.6,-160.05C884.56,-156.99 666.96,-145.32 490.52,-108 486.85,-107.22 483.08,-106.29 479.32,-105.27"/>
<polygon fill="black" stroke="black" points="480.05,-101.84 469.47,-102.4 478.09,-108.56 480.05,-101.84"/>
</g>
<!-- chat -->
<g id="node9" class="node">
<title>chat</title>
<ellipse fill="none" stroke="black" cx="526.52" cy="-90" rx="27.24" ry="18"/>
<text text-anchor="middle" x="526.52" y="-85.8" font-family="Times,serif" font-size="14.00">chat</text>
</g>
<!-- root&#45;&gt;chat -->
<g id="edge8" class="edge">
<title>root&#45;&gt;chat</title>
<path fill="none" stroke="black" d="M959.13,-160.55C890.8,-158.81 707.84,-150.22 562.52,-108 560.58,-107.44 558.61,-106.78 556.64,-106.06"/>
<polygon fill="black" stroke="black" points="557.6,-102.66 547.02,-102.05 554.9,-109.12 557.6,-102.66"/>
</g>
<!-- collapsing_toolbar -->
<g id="node10" class="node">
<title>collapsing_toolbar</title>
<ellipse fill="none" stroke="black" cx="654.52" cy="-90" rx="82.83" ry="18"/>
<text text-anchor="middle" x="654.52" y="-85.8" font-family="Times,serif" font-size="14.00">collapsing_toolbar</text>
</g>
<!-- root&#45;&gt;collapsing_toolbar -->
<g id="edge9" class="edge">
<title>root&#45;&gt;collapsing_toolbar</title>
<path fill="none" stroke="black" d="M961.02,-155.62C910.4,-144.95 795.79,-120.79 721.95,-105.22"/>
<polygon fill="black" stroke="black" points="722.33,-101.72 711.82,-103.08 720.88,-108.57 722.33,-101.72"/>
</g>
<!-- divkit -->
<g id="node11" class="node">
<title>divkit</title>
<ellipse fill="none" stroke="black" cx="788.52" cy="-90" rx="33.65" ry="18"/>
<text text-anchor="middle" x="788.52" y="-85.8" font-family="Times,serif" font-size="14.00">divkit</text>
</g>
<!-- root&#45;&gt;divkit -->
<g id="edge10" class="edge">
<title>root&#45;&gt;divkit</title>
<path fill="none" stroke="black" d="M962.76,-153.26C932.24,-143.23 877.68,-125.01 831.52,-108 829.14,-107.13 826.7,-106.21 824.25,-105.27"/>
<polygon fill="black" stroke="black" points="825.41,-101.97 814.82,-101.63 822.88,-108.5 825.41,-101.97"/>
</g>
<!-- document -->
<g id="node12" class="node">
<title>document</title>
<ellipse fill="none" stroke="black" cx="889.52" cy="-90" rx="49.24" ry="18"/>
<text text-anchor="middle" x="889.52" y="-85.8" font-family="Times,serif" font-size="14.00">document</text>
</g>
<!-- root&#45;&gt;document -->
<g id="edge11" class="edge">
<title>root&#45;&gt;document</title>
<path fill="none" stroke="black" d="M968.73,-148.16C954.85,-138.14 935.27,-124.02 919.05,-112.31"/>
<polygon fill="black" stroke="black" points="921.08,-109.46 910.92,-106.45 916.98,-115.14 921.08,-109.46"/>
</g>
<!-- form -->
<g id="node13" class="node">
<title>form</title>
<ellipse fill="none" stroke="black" cx="986.52" cy="-90" rx="29.61" ry="18"/>
<text text-anchor="middle" x="986.52" y="-85.8" font-family="Times,serif" font-size="14.00">form</text>
</g>
<!-- root&#45;&gt;form -->
<g id="edge12" class="edge">
<title>root&#45;&gt;form</title>
<path fill="none" stroke="black" d="M986.52,-143.7C986.52,-135.98 986.52,-126.71 986.52,-118.11"/>
<polygon fill="black" stroke="black" points="990.02,-118.1 986.52,-108.1 983.02,-118.1 990.02,-118.1"/>
</g>
<!-- map -->
<g id="node14" class="node">
<title>map</title>
<ellipse fill="none" stroke="black" cx="1061.52" cy="-90" rx="27.83" ry="18"/>
<text text-anchor="middle" x="1061.52" y="-85.8" font-family="Times,serif" font-size="14.00">map</text>
</g>
<!-- root&#45;&gt;map -->
<g id="edge14" class="edge">
<title>root&#45;&gt;map</title>
<path fill="none" stroke="black" d="M1001.69,-146.83C1012.37,-136.87 1026.84,-123.37 1038.87,-112.14"/>
<polygon fill="black" stroke="black" points="1041.44,-114.53 1046.36,-105.14 1036.66,-109.41 1041.44,-114.53"/>
</g>
<!-- menu -->
<g id="node15" class="node">
<title>menu</title>
<ellipse fill="none" stroke="black" cx="1139.52" cy="-90" rx="32.48" ry="18"/>
<text text-anchor="middle" x="1139.52" y="-85.8" font-family="Times,serif" font-size="14.00">menu</text>
</g>
<!-- root&#45;&gt;menu -->
<g id="edge15" class="edge">
<title>root&#45;&gt;menu</title>
<path fill="none" stroke="black" d="M1008.11,-151.12C1033.61,-139.46 1076.3,-119.92 1106.08,-106.3"/>
<polygon fill="black" stroke="black" points="1107.62,-109.44 1115.25,-102.1 1104.7,-103.08 1107.62,-109.44"/>
</g>
<!-- navigation -->
<g id="node16" class="node">
<title>navigation</title>
<ellipse fill="none" stroke="black" cx="1241.52" cy="-90" rx="51.61" ry="18"/>
<text text-anchor="middle" x="1241.52" y="-85.8" font-family="Times,serif" font-size="14.00">navigation</text>
</g>
<!-- root&#45;&gt;navigation -->
<g id="edge16" class="edge">
<title>root&#45;&gt;navigation</title>
<path fill="none" stroke="black" d="M1011.03,-154.35C1047.84,-144.34 1119.6,-124.81 1180.52,-108 1184.51,-106.9 1188.65,-105.75 1192.81,-104.6"/>
<polygon fill="black" stroke="black" points="1193.78,-107.96 1202.47,-101.91 1191.9,-101.22 1193.78,-107.96"/>
</g>
<!-- otp -->
<g id="node17" class="node">
<title>otp</title>
<ellipse fill="none" stroke="black" cx="1338.52" cy="-90" rx="27" ry="18"/>
<text text-anchor="middle" x="1338.52" y="-85.8" font-family="Times,serif" font-size="14.00">otp</text>
</g>
<!-- root&#45;&gt;otp -->
<g id="edge17" class="edge">
<title>root&#45;&gt;otp</title>
<path fill="none" stroke="black" d="M1013.31,-159C1068.51,-154.35 1198.48,-140.6 1302.52,-108 1304.45,-107.4 1306.4,-106.71 1308.36,-105.96"/>
<polygon fill="black" stroke="black" points="1310.13,-109.01 1317.97,-101.89 1307.39,-102.57 1310.13,-109.01"/>
</g>
<!-- pin_code -->
<g id="node18" class="node">
<title>pin_code</title>
<ellipse fill="none" stroke="black" cx="1429.52" cy="-90" rx="46.37" ry="18"/>
<text text-anchor="middle" x="1429.52" y="-85.8" font-family="Times,serif" font-size="14.00">pin_code</text>
</g>
<!-- root&#45;&gt;pin_code -->
<g id="edge19" class="edge">
<title>root&#45;&gt;pin_code</title>
<path fill="none" stroke="black" d="M1013.13,-158.88C1076.37,-153.52 1240.43,-137.67 1374.52,-108 1378.2,-107.19 1381.99,-106.24 1385.77,-105.23"/>
<polygon fill="black" stroke="black" points="1387.05,-108.5 1395.72,-102.4 1385.14,-101.77 1387.05,-108.5"/>
</g>
<!-- qr_code -->
<g id="node19" class="node">
<title>qr_code</title>
<ellipse fill="none" stroke="black" cx="1536.52" cy="-90" rx="42.28" ry="18"/>
<text text-anchor="middle" x="1536.52" y="-85.8" font-family="Times,serif" font-size="14.00">qr_code</text>
</g>
<!-- root&#45;&gt;qr_code -->
<g id="edge20" class="edge">
<title>root&#45;&gt;qr_code</title>
<path fill="none" stroke="black" d="M1013.55,-160.11C1088.92,-157.22 1307.47,-145.92 1484.52,-108 1488.17,-107.22 1491.92,-106.28 1495.67,-105.24"/>
<polygon fill="black" stroke="black" points="1496.87,-108.53 1505.46,-102.33 1494.88,-101.82 1496.87,-108.53"/>
</g>
<!-- remote_transfer -->
<g id="node20" class="node">
<title>remote_transfer</title>
<ellipse fill="none" stroke="black" cx="1668.52" cy="-90" rx="72.33" ry="18"/>
<text text-anchor="middle" x="1668.52" y="-85.8" font-family="Times,serif" font-size="14.00">remote_transfer</text>
</g>
<!-- root&#45;&gt;remote_transfer -->
<g id="edge21" class="edge">
<title>root&#45;&gt;remote_transfer</title>
<path fill="none" stroke="black" d="M1013.61,-159.76C1098.59,-155.63 1367.35,-140.69 1587.52,-108 1593.86,-107.06 1600.45,-105.93 1607.01,-104.7"/>
<polygon fill="black" stroke="black" points="1608.11,-108.06 1617.26,-102.72 1606.78,-101.18 1608.11,-108.06"/>
</g>
<!-- settings -->
<g id="node21" class="node">
<title>settings</title>
<ellipse fill="none" stroke="black" cx="1799.52" cy="-90" rx="40.58" ry="18"/>
<text text-anchor="middle" x="1799.52" y="-85.8" font-family="Times,serif" font-size="14.00">settings</text>
</g>
<!-- root&#45;&gt;settings -->
<g id="edge22" class="edge">
<title>root&#45;&gt;settings</title>
<path fill="none" stroke="black" d="M1013.65,-160.06C1132.07,-155.79 1604.21,-137.24 1749.52,-108 1752.99,-107.3 1756.56,-106.42 1760.11,-105.44"/>
<polygon fill="black" stroke="black" points="1761.43,-108.7 1769.99,-102.44 1759.4,-102 1761.43,-108.7"/>
</g>
<!-- shared_element_transitions -->
<g id="node22" class="node">
<title>shared_element_transitions</title>
<ellipse fill="none" stroke="black" cx="1974.52" cy="-90" rx="116.89" ry="18"/>
<text text-anchor="middle" x="1974.52" y="-85.8" font-family="Times,serif" font-size="14.00">shared_element_transitions</text>
</g>
<!-- root&#45;&gt;shared_element_transitions -->
<g id="edge23" class="edge">
<title>root&#45;&gt;shared_element_transitions</title>
<path fill="none" stroke="black" d="M1013.42,-160.07C1119.74,-156.25 1520.87,-140.4 1849.52,-108 1860.47,-106.92 1871.95,-105.61 1883.31,-104.2"/>
<polygon fill="black" stroke="black" points="1883.78,-107.67 1893.26,-102.94 1882.9,-100.72 1883.78,-107.67"/>
</g>
<!-- tutorial -->
<g id="node23" class="node">
<title>tutorial</title>
<ellipse fill="none" stroke="black" cx="2148.52" cy="-90" rx="38.86" ry="18"/>
<text text-anchor="middle" x="2148.52" y="-85.8" font-family="Times,serif" font-size="14.00">tutorial</text>
</g>
<!-- root&#45;&gt;tutorial -->
<g id="edge24" class="edge">
<title>root&#45;&gt;tutorial</title>
<path fill="none" stroke="black" d="M1013.82,-160.78C1163.22,-159.42 1882.98,-150.73 2100.52,-108 2103.77,-107.36 2107.1,-106.54 2110.41,-105.62"/>
<polygon fill="black" stroke="black" points="2111.71,-108.88 2120.22,-102.56 2109.63,-102.19 2111.71,-108.88"/>
</g>
<!-- work_manager -->
<g id="node24" class="node">
<title>work_manager</title>
<ellipse fill="none" stroke="black" cx="2274.52" cy="-90" rx="68.9" ry="18"/>
<text text-anchor="middle" x="2274.52" y="-85.8" font-family="Times,serif" font-size="14.00">work_manager</text>
</g>
<!-- root&#45;&gt;work_manager -->
<g id="edge26" class="edge">
<title>root&#45;&gt;work_manager</title>
<path fill="none" stroke="black" d="M1013.49,-160.45C1169.4,-157.15 1956.46,-139.19 2196.52,-108 2202.83,-107.18 2209.39,-106.11 2215.9,-104.9"/>
<polygon fill="black" stroke="black" points="2216.92,-108.26 2226.06,-102.9 2215.57,-101.4 2216.92,-108.26"/>
</g>
</g>
</svg>
