<svg width="2259px" height="260px"
 viewBox="0.00 0.00 2259.02 260.00" xmlns="http://www.w3.org/2000/svg" xmlns:xlink="http://www.w3.org/1999/xlink">
<g id="graph0" class="graph" transform="scale(1.0 1.0) rotate(0.0) translate(4.0 256.0)">
<polygon fill="white" stroke="transparent" points="-4,4 -4,-256 2255.02,-256 2255.02,4 -4,4"/>
<!-- multipane_menu -->
<g id="node1" class="node">
<title>multipane_menu</title>
<ellipse fill="none" stroke="black" cx="946.48" cy="-162" rx="75.89" ry="18"/>
<text text-anchor="middle" x="946.48" y="-157.8" font-family="Times,serif" font-size="14.00">multipane_menu</text>
</g>
<!-- calendar -->
<g id="node2" class="node">
<title>calendar</title>
<ellipse fill="none" stroke="black" cx="60.48" cy="-90" rx="43.98" ry="18"/>
<text text-anchor="middle" x="60.48" y="-85.8" font-family="Times,serif" font-size="14.00">calendar</text>
</g>
<!-- multipane_menu&#45;&gt;calendar -->
<g id="edge1" class="edge">
<title>multipane_menu&#45;&gt;calendar</title>
<path fill="none" stroke="black" d="M871.76,-158.61C695.49,-152.58 257.73,-135.29 113.48,-108 109.63,-107.27 105.68,-106.35 101.75,-105.31"/>
<polygon fill="black" stroke="black" points="102.67,-101.94 92.1,-102.54 100.74,-108.67 102.67,-101.94"/>
</g>
<!-- charts -->
<g id="node3" class="node">
<title>charts</title>
<ellipse fill="none" stroke="black" cx="156.48" cy="-90" rx="34.19" ry="18"/>
<text text-anchor="middle" x="156.48" y="-85.8" font-family="Times,serif" font-size="14.00">charts</text>
</g>
<!-- multipane_menu&#45;&gt;charts -->
<g id="edge2" class="edge">
<title>multipane_menu&#45;&gt;charts</title>
<path fill="none" stroke="black" d="M871.86,-158.6C708.95,-152.88 325.93,-136.77 199.48,-108 196.69,-107.37 193.84,-106.58 191.01,-105.69"/>
<polygon fill="black" stroke="black" points="192.13,-102.38 181.53,-102.39 189.82,-108.99 192.13,-102.38"/>
</g>
<!-- chat -->
<g id="node4" class="node">
<title>chat</title>
<ellipse fill="none" stroke="black" cx="235.48" cy="-90" rx="27.24" ry="18"/>
<text text-anchor="middle" x="235.48" y="-85.8" font-family="Times,serif" font-size="14.00">chat</text>
</g>
<!-- multipane_menu&#45;&gt;chat -->
<g id="edge3" class="edge">
<title>multipane_menu&#45;&gt;chat</title>
<path fill="none" stroke="black" d="M871.84,-158.54C720.62,-153 383.02,-137.65 271.48,-108 269.52,-107.48 267.54,-106.86 265.57,-106.16"/>
<polygon fill="black" stroke="black" points="266.51,-102.76 255.93,-102.22 263.86,-109.24 266.51,-102.76"/>
</g>
<!-- collapsing_toolbar -->
<g id="node5" class="node">
<title>collapsing_toolbar</title>
<ellipse fill="none" stroke="black" cx="363.48" cy="-90" rx="82.83" ry="18"/>
<text text-anchor="middle" x="363.48" y="-85.8" font-family="Times,serif" font-size="14.00">collapsing_toolbar</text>
</g>
<!-- multipane_menu&#45;&gt;collapsing_toolbar -->
<g id="edge4" class="edge">
<title>multipane_menu&#45;&gt;collapsing_toolbar</title>
<path fill="none" stroke="black" d="M876.19,-155.15C780.52,-146.8 604.07,-130 454.48,-108 447.37,-106.96 439.97,-105.76 432.6,-104.49"/>
<polygon fill="black" stroke="black" points="433.05,-101.02 422.6,-102.73 431.84,-107.91 433.05,-101.02"/>
</g>
<!-- divkit -->
<g id="node6" class="node">
<title>divkit</title>
<ellipse fill="none" stroke="black" cx="497.48" cy="-90" rx="33.65" ry="18"/>
<text text-anchor="middle" x="497.48" y="-85.8" font-family="Times,serif" font-size="14.00">divkit</text>
</g>
<!-- multipane_menu&#45;&gt;divkit -->
<g id="edge5" class="edge">
<title>multipane_menu&#45;&gt;divkit</title>
<path fill="none" stroke="black" d="M873.58,-156.91C791.51,-151.06 654.71,-137.55 540.48,-108 537.71,-107.28 534.88,-106.44 532.05,-105.51"/>
<polygon fill="black" stroke="black" points="533.19,-102.2 522.6,-102.13 530.83,-108.79 533.19,-102.2"/>
</g>
<!-- document -->
<g id="node7" class="node">
<title>document</title>
<ellipse fill="none" stroke="black" cx="598.48" cy="-90" rx="49.24" ry="18"/>
<text text-anchor="middle" x="598.48" y="-85.8" font-family="Times,serif" font-size="14.00">document</text>
</g>
<!-- multipane_menu&#45;&gt;document -->
<g id="edge6" class="edge">
<title>multipane_menu&#45;&gt;document</title>
<path fill="none" stroke="black" d="M884.42,-151.58C825.44,-142.18 734.41,-126.49 656.48,-108 652.62,-107.09 648.65,-106.07 644.67,-105.01"/>
<polygon fill="black" stroke="black" points="645.4,-101.58 634.83,-102.29 643.53,-108.33 645.4,-101.58"/>
</g>
<!-- form -->
<g id="node8" class="node">
<title>form</title>
<ellipse fill="none" stroke="black" cx="695.48" cy="-90" rx="29.61" ry="18"/>
<text text-anchor="middle" x="695.48" y="-85.8" font-family="Times,serif" font-size="14.00">form</text>
</g>
<!-- multipane_menu&#45;&gt;form -->
<g id="edge7" class="edge">
<title>multipane_menu&#45;&gt;form</title>
<path fill="none" stroke="black" d="M890.08,-149.82C846.68,-140.53 785.53,-125.96 733.48,-108 731.58,-107.35 729.65,-106.63 727.71,-105.88"/>
<polygon fill="black" stroke="black" points="728.7,-102.5 718.12,-101.91 726.02,-108.97 728.7,-102.5"/>
</g>
<!-- image -->
<g id="node9" class="node">
<title>image</title>
<ellipse fill="none" stroke="black" cx="908.48" cy="-18" rx="34.77" ry="18"/>
<text text-anchor="middle" x="908.48" y="-13.8" font-family="Times,serif" font-size="14.00">image</text>
</g>
<!-- multipane_menu&#45;&gt;image -->
<g id="edge8" class="edge">
<title>multipane_menu&#45;&gt;image</title>
<path fill="none" stroke="black" d="M941.89,-143.87C935.39,-119.56 923.41,-74.82 915.7,-46.01"/>
<polygon fill="black" stroke="black" points="919.04,-44.94 913.08,-36.19 912.28,-46.75 919.04,-44.94"/>
</g>
<!-- map -->
<g id="node10" class="node">
<title>map</title>
<ellipse fill="none" stroke="black" cx="770.48" cy="-90" rx="27.83" ry="18"/>
<text text-anchor="middle" x="770.48" y="-85.8" font-family="Times,serif" font-size="14.00">map</text>
</g>
<!-- multipane_menu&#45;&gt;map -->
<g id="edge9" class="edge">
<title>multipane_menu&#45;&gt;map</title>
<path fill="none" stroke="black" d="M906.65,-146.62C878.71,-136.33 840.58,-121.9 807.48,-108 805.62,-107.22 803.72,-106.4 801.8,-105.57"/>
<polygon fill="black" stroke="black" points="802.84,-102.2 792.28,-101.31 799.98,-108.59 802.84,-102.2"/>
</g>
<!-- menu -->
<g id="node11" class="node">
<title>menu</title>
<ellipse fill="none" stroke="black" cx="848.48" cy="-90" rx="32.48" ry="18"/>
<text text-anchor="middle" x="848.48" y="-85.8" font-family="Times,serif" font-size="14.00">menu</text>
</g>
<!-- multipane_menu&#45;&gt;menu -->
<g id="edge10" class="edge">
<title>multipane_menu&#45;&gt;menu</title>
<path fill="none" stroke="black" d="M923.75,-144.76C909.57,-134.64 891.22,-121.53 876.19,-110.79"/>
<polygon fill="black" stroke="black" points="877.95,-107.75 867.78,-104.79 873.88,-113.45 877.95,-107.75"/>
</g>
<!-- navigation -->
<g id="node12" class="node">
<title>navigation</title>
<ellipse fill="none" stroke="black" cx="1110.48" cy="-90" rx="51.61" ry="18"/>
<text text-anchor="middle" x="1110.48" y="-85.8" font-family="Times,serif" font-size="14.00">navigation</text>
</g>
<!-- multipane_menu&#45;&gt;navigation -->
<g id="edge11" class="edge">
<title>multipane_menu&#45;&gt;navigation</title>
<path fill="none" stroke="black" d="M981.66,-145.98C1007.5,-134.95 1042.68,-119.94 1069.75,-108.38"/>
<polygon fill="black" stroke="black" points="1071.13,-111.6 1078.96,-104.45 1068.38,-105.16 1071.13,-111.6"/>
</g>
<!-- otp -->
<g id="node13" class="node">
<title>otp</title>
<ellipse fill="none" stroke="black" cx="1207.48" cy="-90" rx="27" ry="18"/>
<text text-anchor="middle" x="1207.48" y="-85.8" font-family="Times,serif" font-size="14.00">otp</text>
</g>
<!-- multipane_menu&#45;&gt;otp -->
<g id="edge12" class="edge">
<title>multipane_menu&#45;&gt;otp</title>
<path fill="none" stroke="black" d="M1005.71,-150.58C1051.66,-141.65 1116.54,-127.2 1171.48,-108 1173.38,-107.33 1175.33,-106.6 1177.27,-105.81"/>
<polygon fill="black" stroke="black" points="1179.07,-108.85 1186.85,-101.65 1176.28,-102.43 1179.07,-108.85"/>
</g>
<!-- photo -->
<g id="node14" class="node">
<title>photo</title>
<ellipse fill="none" stroke="black" cx="1007.48" cy="-90" rx="33.07" ry="18"/>
<text text-anchor="middle" x="1007.48" y="-85.8" font-family="Times,serif" font-size="14.00">photo</text>
</g>
<!-- multipane_menu&#45;&gt;photo -->
<g id="edge13" class="edge">
<title>multipane_menu&#45;&gt;photo</title>
<path fill="none" stroke="black" d="M961.24,-144.05C968.96,-135.2 978.52,-124.23 986.94,-114.57"/>
<polygon fill="black" stroke="black" points="989.75,-116.67 993.68,-106.83 984.47,-112.07 989.75,-116.67"/>
</g>
<!-- pin_code -->
<g id="node15" class="node">
<title>pin_code</title>
<ellipse fill="none" stroke="black" cx="1298.48" cy="-90" rx="46.37" ry="18"/>
<text text-anchor="middle" x="1298.48" y="-85.8" font-family="Times,serif" font-size="14.00">pin_code</text>
</g>
<!-- multipane_menu&#45;&gt;pin_code -->
<g id="edge14" class="edge">
<title>multipane_menu&#45;&gt;pin_code</title>
<path fill="none" stroke="black" d="M1009.81,-152.01C1070.26,-142.89 1163.69,-127.37 1243.48,-108 1247.09,-107.12 1250.81,-106.14 1254.54,-105.11"/>
<polygon fill="black" stroke="black" points="1255.7,-108.41 1264.33,-102.27 1253.75,-101.69 1255.7,-108.41"/>
</g>
<!-- qr_code -->
<g id="node16" class="node">
<title>qr_code</title>
<ellipse fill="none" stroke="black" cx="1405.48" cy="-90" rx="42.28" ry="18"/>
<text text-anchor="middle" x="1405.48" y="-85.8" font-family="Times,serif" font-size="14.00">qr_code</text>
</g>
<!-- multipane_menu&#45;&gt;qr_code -->
<g id="edge15" class="edge">
<title>multipane_menu&#45;&gt;qr_code</title>
<path fill="none" stroke="black" d="M1017.77,-155.77C1099.58,-148.83 1237.42,-134.29 1353.48,-108 1357.12,-107.18 1360.87,-106.2 1364.61,-105.15"/>
<polygon fill="black" stroke="black" points="1365.82,-108.44 1374.39,-102.21 1363.81,-101.73 1365.82,-108.44"/>
</g>
<!-- remote_transfer -->
<g id="node17" class="node">
<title>remote_transfer</title>
<ellipse fill="none" stroke="black" cx="1537.48" cy="-90" rx="72.33" ry="18"/>
<text text-anchor="middle" x="1537.48" y="-85.8" font-family="Times,serif" font-size="14.00">remote_transfer</text>
</g>
<!-- multipane_menu&#45;&gt;remote_transfer -->
<g id="edge16" class="edge">
<title>multipane_menu&#45;&gt;remote_transfer</title>
<path fill="none" stroke="black" d="M1018.15,-155.9C1117.12,-148.32 1301.03,-132.32 1456.48,-108 1462.72,-107.02 1469.21,-105.88 1475.67,-104.66"/>
<polygon fill="black" stroke="black" points="1476.63,-108.04 1485.77,-102.68 1475.28,-101.17 1476.63,-108.04"/>
</g>
<!-- shared_element_transitions -->
<g id="node18" class="node">
<title>shared_element_transitions</title>
<ellipse fill="none" stroke="black" cx="1744.48" cy="-90" rx="116.89" ry="18"/>
<text text-anchor="middle" x="1744.48" y="-85.8" font-family="Times,serif" font-size="14.00">shared_element_transitions</text>
</g>
<!-- multipane_menu&#45;&gt;shared_element_transitions -->
<g id="edge17" class="edge">
<title>multipane_menu&#45;&gt;shared_element_transitions</title>
<path fill="none" stroke="black" d="M1019.19,-156.59C1142.6,-148.81 1400.87,-131.24 1618.48,-108 1629.43,-106.83 1640.89,-105.47 1652.26,-104.04"/>
<polygon fill="black" stroke="black" points="1652.73,-107.51 1662.21,-102.77 1651.84,-100.57 1652.73,-107.51"/>
</g>
<!-- tutorial -->
<g id="node19" class="node">
<title>tutorial</title>
<ellipse fill="none" stroke="black" cx="1918.48" cy="-90" rx="38.86" ry="18"/>
<text text-anchor="middle" x="1918.48" y="-85.8" font-family="Times,serif" font-size="14.00">tutorial</text>
</g>
<!-- multipane_menu&#45;&gt;tutorial -->
<g id="edge18" class="edge">
<title>multipane_menu&#45;&gt;tutorial</title>
<path fill="none" stroke="black" d="M1021.96,-159.42C1212.42,-154.98 1708.83,-140.57 1870.48,-108 1873.73,-107.35 1877.05,-106.52 1880.37,-105.58"/>
<polygon fill="black" stroke="black" points="1881.67,-108.84 1890.17,-102.51 1879.58,-102.16 1881.67,-108.84"/>
</g>
<!-- video -->
<g id="node20" class="node">
<title>video</title>
<ellipse fill="none" stroke="black" cx="1007.48" cy="-18" rx="32.48" ry="18"/>
<text text-anchor="middle" x="1007.48" y="-13.8" font-family="Times,serif" font-size="14.00">video</text>
</g>
<!-- multipane_menu&#45;&gt;video -->
<g id="edge19" class="edge">
<title>multipane_menu&#45;&gt;video</title>
<path fill="none" stroke="black" d="M947.8,-143.86C949.74,-125.37 954.43,-95.44 965.48,-72 970.53,-61.27 978.14,-50.75 985.5,-41.95"/>
<polygon fill="black" stroke="black" points="988.16,-44.22 992.11,-34.39 982.89,-39.61 988.16,-44.22"/>
</g>
<!-- work_manager -->
<g id="node21" class="node">
<title>work_manager</title>
<ellipse fill="none" stroke="black" cx="2044.48" cy="-90" rx="68.9" ry="18"/>
<text text-anchor="middle" x="2044.48" y="-85.8" font-family="Times,serif" font-size="14.00">work_manager</text>
</g>
<!-- multipane_menu&#45;&gt;work_manager -->
<g id="edge20" class="edge">
<title>multipane_menu&#45;&gt;work_manager</title>
<path fill="none" stroke="black" d="M1022.36,-161.26C1192.26,-160.93 1615.85,-155 1966.48,-108 1972.79,-107.15 1979.34,-106.06 1985.86,-104.85"/>
<polygon fill="black" stroke="black" points="1986.88,-108.21 1996.01,-102.84 1985.52,-101.34 1986.88,-108.21"/>
</g>
<!-- photo&#45;&gt;image -->
<g id="edge21" class="edge">
<title>photo&#45;&gt;image</title>
<path fill="none" stroke="black" d="M987.92,-75.17C973.23,-64.79 952.92,-50.42 936.51,-38.82"/>
<polygon fill="black" stroke="black" points="938.52,-35.96 928.33,-33.04 934.48,-41.67 938.52,-35.96"/>
</g>
<!-- photo&#45;&gt;video -->
<g id="edge22" class="edge">
<title>photo&#45;&gt;video</title>
<path fill="none" stroke="black" d="M1007.48,-71.7C1007.48,-63.98 1007.48,-54.71 1007.48,-46.11"/>
<polygon fill="black" stroke="black" points="1010.98,-46.1 1007.48,-36.1 1003.98,-46.1 1010.98,-46.1"/>
</g>
<!-- root -->
<g id="node22" class="node">
<title>root</title>
<ellipse fill="none" stroke="black" cx="998.48" cy="-234" rx="27" ry="18"/>
<text text-anchor="middle" x="998.48" y="-229.8" font-family="Times,serif" font-size="14.00">root</text>
</g>
<!-- root&#45;&gt;multipane_menu -->
<g id="edge33" class="edge">
<title>root&#45;&gt;multipane_menu</title>
<path fill="none" stroke="black" d="M986.94,-217.46C980.55,-208.87 972.45,-197.97 965.19,-188.19"/>
<polygon fill="black" stroke="black" points="967.85,-185.9 959.08,-179.96 962.23,-190.08 967.85,-185.9"/>
</g>
<!-- root&#45;&gt;calendar -->
<g id="edge23" class="edge">
<title>root&#45;&gt;calendar</title>
<path fill="none" stroke="black" d="M971.27,-232.33C854.66,-229.28 396.73,-215.24 257.48,-180 196.77,-164.64 131.51,-131.49 93.42,-110.27"/>
<polygon fill="black" stroke="black" points="94.77,-107.01 84.34,-105.15 91.33,-113.11 94.77,-107.01"/>
</g>
<!-- root&#45;&gt;charts -->
<g id="edge24" class="edge">
<title>root&#45;&gt;charts</title>
<path fill="none" stroke="black" d="M971.39,-231.97C865.01,-227.76 475.79,-210.53 356.48,-180 293.85,-163.97 226.16,-129.96 187.77,-108.93"/>
<polygon fill="black" stroke="black" points="189.11,-105.67 178.67,-103.88 185.72,-111.79 189.11,-105.67"/>
</g>
<!-- root&#45;&gt;chat -->
<g id="edge25" class="edge">
<title>root&#45;&gt;chat</title>
<path fill="none" stroke="black" d="M971.44,-232.42C894.03,-230.28 665.21,-220.7 480.48,-180 384.53,-158.86 362.48,-145.03 271.48,-108 269.65,-107.26 267.79,-106.47 265.91,-105.66"/>
<polygon fill="black" stroke="black" points="267.18,-102.39 256.62,-101.46 264.3,-108.77 267.18,-102.39"/>
</g>
<!-- root&#45;&gt;collapsing_toolbar -->
<g id="edge26" class="edge">
<title>root&#45;&gt;collapsing_toolbar</title>
<path fill="none" stroke="black" d="M971.45,-231.72C905.66,-228.12 732.28,-215.73 592.48,-180 525.15,-162.79 450.78,-131.44 405.59,-110.92"/>
<polygon fill="black" stroke="black" points="406.95,-107.69 396.4,-106.71 404.04,-114.06 406.95,-107.69"/>
</g>
<!-- root&#45;&gt;divkit -->
<g id="edge27" class="edge">
<title>root&#45;&gt;divkit</title>
<path fill="none" stroke="black" d="M971.64,-231.25C915.71,-227.03 783.13,-214.01 677.48,-180 622.03,-162.15 562.29,-129.7 527.48,-109.3"/>
<polygon fill="black" stroke="black" points="529.15,-106.22 518.76,-104.14 525.58,-112.24 529.15,-106.22"/>
</g>
<!-- root&#45;&gt;document -->
<g id="edge28" class="edge">
<title>root&#45;&gt;document</title>
<path fill="none" stroke="black" d="M971.86,-230.19C925.42,-224.67 827.12,-210.22 749.48,-180 704.76,-162.6 657.84,-132.86 628.4,-112.6"/>
<polygon fill="black" stroke="black" points="630.05,-109.48 619.84,-106.63 626.04,-115.22 630.05,-109.48"/>
</g>
<!-- root&#45;&gt;form -->
<g id="edge29" class="edge">
<title>root&#45;&gt;form</title>
<path fill="none" stroke="black" d="M972.27,-229.48C933.59,-223.51 859.72,-209.09 803.48,-180 769.99,-162.68 737.42,-133.66 716.95,-113.48"/>
<polygon fill="black" stroke="black" points="719.26,-110.84 709.73,-106.23 714.3,-115.78 719.26,-110.84"/>
</g>
<!-- root&#45;&gt;image -->
<g id="edge30" class="edge">
<title>root&#45;&gt;image</title>
<path fill="none" stroke="black" d="M971.54,-232.66C846.09,-230.88 318.45,-221.06 159.48,-180 87.1,-161.31 47.45,-171.17 7.48,-108 -1.08,-94.48 -3.5,-83.64 7.48,-72 37.15,-40.53 686.19,-23.91 863.86,-19.94"/>
<polygon fill="black" stroke="black" points="863.99,-23.44 873.91,-19.72 863.83,-16.44 863.99,-23.44"/>
</g>
<!-- root&#45;&gt;map -->
<g id="edge31" class="edge">
<title>root&#45;&gt;map</title>
<path fill="none" stroke="black" d="M972.63,-228.69C940.14,-222.31 883.78,-207.97 843.48,-180 818.99,-163.01 798.25,-135.6 785.21,-115.69"/>
<polygon fill="black" stroke="black" points="788.09,-113.69 779.78,-107.13 782.18,-117.45 788.09,-113.69"/>
</g>
<!-- root&#45;&gt;menu -->
<g id="edge32" class="edge">
<title>root&#45;&gt;menu</title>
<path fill="none" stroke="black" d="M971.91,-230.59C940.36,-226.21 888.59,-213.99 861.48,-180 847.74,-162.78 845.19,-137.5 845.68,-118.29"/>
<polygon fill="black" stroke="black" points="849.19,-118.22 846.23,-108.05 842.2,-117.85 849.19,-118.22"/>
</g>
<!-- root&#45;&gt;navigation -->
<g id="edge34" class="edge">
<title>root&#45;&gt;navigation</title>
<path fill="none" stroke="black" d="M1012.74,-218.61C1022.81,-208.2 1036.43,-193.63 1047.48,-180 1064.28,-159.27 1081.67,-134.39 1093.92,-116.21"/>
<polygon fill="black" stroke="black" points="1096.84,-118.14 1099.49,-107.88 1091.02,-114.25 1096.84,-118.14"/>
</g>
<!-- root&#45;&gt;otp -->
<g id="edge35" class="edge">
<title>root&#45;&gt;otp</title>
<path fill="none" stroke="black" d="M1016.66,-220.65C1053.64,-195.52 1137.75,-138.37 1180.88,-109.07"/>
<polygon fill="black" stroke="black" points="1182.88,-111.94 1189.19,-103.43 1178.95,-106.15 1182.88,-111.94"/>
</g>
<!-- root&#45;&gt;photo -->
<g id="edge36" class="edge">
<title>root&#45;&gt;photo</title>
<path fill="none" stroke="black" d="M1011.1,-217.88C1018.63,-207.83 1027.48,-193.97 1031.48,-180 1035.87,-164.62 1034.85,-159.64 1031.48,-144 1029.46,-134.67 1025.67,-125.02 1021.68,-116.54"/>
<polygon fill="black" stroke="black" points="1024.79,-114.93 1017.18,-107.55 1018.53,-118.06 1024.79,-114.93"/>
</g>
<!-- root&#45;&gt;pin_code -->
<g id="edge37" class="edge">
<title>root&#45;&gt;pin_code</title>
<path fill="none" stroke="black" d="M1020.52,-223.48C1044.5,-213.06 1083.89,-195.73 1117.48,-180 1167.98,-156.35 1225.7,-127.68 1262.11,-109.39"/>
<polygon fill="black" stroke="black" points="1263.98,-112.36 1271.34,-104.74 1260.83,-106.11 1263.98,-112.36"/>
</g>
<!-- root&#45;&gt;qr_code -->
<g id="edge38" class="edge">
<title>root&#45;&gt;qr_code</title>
<path fill="none" stroke="black" d="M1022.69,-225.99C1055.97,-216.25 1117.59,-197.81 1169.48,-180 1239.46,-155.98 1319.88,-124.89 1366.47,-106.53"/>
<polygon fill="black" stroke="black" points="1367.86,-109.75 1375.88,-102.82 1365.29,-103.23 1367.86,-109.75"/>
</g>
<!-- root&#45;&gt;remote_transfer -->
<g id="edge39" class="edge">
<title>root&#45;&gt;remote_transfer</title>
<path fill="none" stroke="black" d="M1023.88,-227.78C1066.97,-218.8 1157.07,-199.52 1232.48,-180 1321.5,-156.95 1423.93,-126.18 1484.55,-107.51"/>
<polygon fill="black" stroke="black" points="1485.75,-110.81 1494.27,-104.51 1483.68,-104.12 1485.75,-110.81"/>
</g>
<!-- root&#45;&gt;shared_element_transitions -->
<g id="edge41" class="edge">
<title>root&#45;&gt;shared_element_transitions</title>
<path fill="none" stroke="black" d="M1024.42,-228.9C1077.97,-220.37 1204.63,-199.84 1310.48,-180 1436.83,-156.32 1583.18,-125.63 1669.57,-107.17"/>
<polygon fill="black" stroke="black" points="1670.49,-110.55 1679.54,-105.03 1669.03,-103.7 1670.49,-110.55"/>
</g>
<!-- root&#45;&gt;tutorial -->
<g id="edge42" class="edge">
<title>root&#45;&gt;tutorial</title>
<path fill="none" stroke="black" d="M1025.27,-231.24C1132.9,-223.74 1543.61,-190.94 1870.48,-108 1873.6,-107.21 1876.82,-106.29 1880.02,-105.31"/>
<polygon fill="black" stroke="black" points="1881.12,-108.63 1889.55,-102.21 1878.96,-101.98 1881.12,-108.63"/>
</g>
<!-- root&#45;&gt;video -->
<g id="edge43" class="edge">
<title>root&#45;&gt;video</title>
<path fill="none" stroke="black" d="M1025.48,-233.34C1210.72,-235.21 2281.65,-238.92 2122.48,-72 2084.8,-32.49 1249.51,-21.47 1050,-19.4"/>
<polygon fill="black" stroke="black" points="1049.94,-15.9 1039.91,-19.3 1049.87,-22.9 1049.94,-15.9"/>
</g>
<!-- root&#45;&gt;work_manager -->
<g id="edge44" class="edge">
<title>root&#45;&gt;work_manager</title>
<path fill="none" stroke="black" d="M1025.46,-231.9C1112.58,-228.11 1394.09,-213.87 1624.48,-180 1778.16,-157.41 1814.59,-140.54 1966.48,-108 1971.9,-106.84 1977.53,-105.63 1983.17,-104.4"/>
<polygon fill="black" stroke="black" points="1984.27,-107.75 1993.3,-102.21 1982.79,-100.91 1984.27,-107.75"/>
</g>
<!-- settings -->
<g id="node23" class="node">
<title>settings</title>
<ellipse fill="none" stroke="black" cx="2210.48" cy="-162" rx="40.58" ry="18"/>
<text text-anchor="middle" x="2210.48" y="-157.8" font-family="Times,serif" font-size="14.00">settings</text>
</g>
<!-- root&#45;&gt;settings -->
<g id="edge40" class="edge">
<title>root&#45;&gt;settings</title>
<path fill="none" stroke="black" d="M1025.8,-232.69C1178.55,-230.81 1928.17,-219.67 2155.48,-180 2160.27,-179.16 2165.23,-178.03 2170.12,-176.74"/>
<polygon fill="black" stroke="black" points="2171.32,-180.04 2179.98,-173.93 2169.4,-173.31 2171.32,-180.04"/>
</g>
</g>
</svg>
