<svg width="2127px" height="260px"
 viewBox="0.00 0.00 2126.92 260.00" xmlns="http://www.w3.org/2000/svg" xmlns:xlink="http://www.w3.org/1999/xlink">
<g id="graph0" class="graph" transform="scale(1.0 1.0) rotate(0.0) translate(4.0 256.0)">
<polygon fill="white" stroke="transparent" points="-4,4 -4,-256 2122.92,-256 2122.92,4 -4,4"/>
<!-- multipane_menu -->
<g id="node1" class="node">
<title>multipane_menu</title>
<ellipse fill="none" stroke="black" cx="952.38" cy="-162" rx="75.89" ry="18"/>
<text text-anchor="middle" x="952.38" y="-157.8" font-family="Times,serif" font-size="14.00">multipane_menu</text>
</g>
<!-- calendar -->
<g id="node2" class="node">
<title>calendar</title>
<ellipse fill="none" stroke="black" cx="67.38" cy="-90" rx="43.98" ry="18"/>
<text text-anchor="middle" x="67.38" y="-85.8" font-family="Times,serif" font-size="14.00">calendar</text>
</g>
<!-- multipane_menu&#45;&gt;calendar -->
<g id="edge1" class="edge">
<title>multipane_menu&#45;&gt;calendar</title>
<path fill="none" stroke="black" d="M877.75,-158.6C701.69,-152.57 264.46,-135.26 120.38,-108 116.54,-107.27 112.59,-106.35 108.66,-105.31"/>
<polygon fill="black" stroke="black" points="109.58,-101.94 99,-102.54 107.65,-108.67 109.58,-101.94"/>
</g>
<!-- charts -->
<g id="node3" class="node">
<title>charts</title>
<ellipse fill="none" stroke="black" cx="163.38" cy="-90" rx="34.19" ry="18"/>
<text text-anchor="middle" x="163.38" y="-85.8" font-family="Times,serif" font-size="14.00">charts</text>
</g>
<!-- multipane_menu&#45;&gt;charts -->
<g id="edge2" class="edge">
<title>multipane_menu&#45;&gt;charts</title>
<path fill="none" stroke="black" d="M877.56,-158.58C714.69,-152.85 332.59,-136.71 206.38,-108 203.59,-107.37 200.75,-106.58 197.92,-105.69"/>
<polygon fill="black" stroke="black" points="199.03,-102.38 188.44,-102.39 196.73,-108.99 199.03,-102.38"/>
</g>
<!-- chat -->
<g id="node4" class="node">
<title>chat</title>
<ellipse fill="none" stroke="black" cx="242.38" cy="-90" rx="27.24" ry="18"/>
<text text-anchor="middle" x="242.38" y="-85.8" font-family="Times,serif" font-size="14.00">chat</text>
</g>
<!-- multipane_menu&#45;&gt;chat -->
<g id="edge3" class="edge">
<title>multipane_menu&#45;&gt;chat</title>
<path fill="none" stroke="black" d="M877.85,-158.53C726.86,-152.98 389.76,-137.61 278.38,-108 276.43,-107.48 274.45,-106.86 272.48,-106.16"/>
<polygon fill="black" stroke="black" points="273.42,-102.76 262.83,-102.22 270.77,-109.24 273.42,-102.76"/>
</g>
<!-- collapsing_toolbar -->
<g id="node5" class="node">
<title>collapsing_toolbar</title>
<ellipse fill="none" stroke="black" cx="370.38" cy="-90" rx="82.83" ry="18"/>
<text text-anchor="middle" x="370.38" y="-85.8" font-family="Times,serif" font-size="14.00">collapsing_toolbar</text>
</g>
<!-- multipane_menu&#45;&gt;collapsing_toolbar -->
<g id="edge4" class="edge">
<title>multipane_menu&#45;&gt;collapsing_toolbar</title>
<path fill="none" stroke="black" d="M881.98,-155.06C786.61,-146.62 611.18,-129.76 462.38,-108 455.01,-106.92 447.32,-105.68 439.67,-104.38"/>
<polygon fill="black" stroke="black" points="440.11,-100.9 429.66,-102.63 438.91,-107.8 440.11,-100.9"/>
</g>
<!-- document -->
<g id="node6" class="node">
<title>document</title>
<ellipse fill="none" stroke="black" cx="520.38" cy="-90" rx="49.24" ry="18"/>
<text text-anchor="middle" x="520.38" y="-85.8" font-family="Times,serif" font-size="14.00">document</text>
</g>
<!-- multipane_menu&#45;&gt;document -->
<g id="edge5" class="edge">
<title>multipane_menu&#45;&gt;document</title>
<path fill="none" stroke="black" d="M883.61,-154.27C808.18,-146.18 683.82,-130.8 578.38,-108 574.45,-107.15 570.41,-106.18 566.36,-105.13"/>
<polygon fill="black" stroke="black" points="566.94,-101.66 556.37,-102.42 565.11,-108.42 566.94,-101.66"/>
</g>
<!-- form -->
<g id="node7" class="node">
<title>form</title>
<ellipse fill="none" stroke="black" cx="617.38" cy="-90" rx="29.61" ry="18"/>
<text text-anchor="middle" x="617.38" y="-85.8" font-family="Times,serif" font-size="14.00">form</text>
</g>
<!-- multipane_menu&#45;&gt;form -->
<g id="edge6" class="edge">
<title>multipane_menu&#45;&gt;form</title>
<path fill="none" stroke="black" d="M884.92,-153.73C823.99,-146.04 732.35,-131.69 655.38,-108 653.46,-107.41 651.52,-106.75 649.57,-106.04"/>
<polygon fill="black" stroke="black" points="650.52,-102.65 639.94,-102.17 647.92,-109.15 650.52,-102.65"/>
</g>
<!-- image -->
<g id="node8" class="node">
<title>image</title>
<ellipse fill="none" stroke="black" cx="952.38" cy="-18" rx="34.77" ry="18"/>
<text text-anchor="middle" x="952.38" y="-13.8" font-family="Times,serif" font-size="14.00">image</text>
</g>
<!-- multipane_menu&#45;&gt;image -->
<g id="edge7" class="edge">
<title>multipane_menu&#45;&gt;image</title>
<path fill="none" stroke="black" d="M952.38,-143.87C952.38,-119.67 952.38,-75.21 952.38,-46.39"/>
<polygon fill="black" stroke="black" points="955.88,-46.19 952.38,-36.19 948.88,-46.19 955.88,-46.19"/>
</g>
<!-- map -->
<g id="node9" class="node">
<title>map</title>
<ellipse fill="none" stroke="black" cx="692.38" cy="-90" rx="27.83" ry="18"/>
<text text-anchor="middle" x="692.38" y="-85.8" font-family="Times,serif" font-size="14.00">map</text>
</g>
<!-- multipane_menu&#45;&gt;map -->
<g id="edge8" class="edge">
<title>multipane_menu&#45;&gt;map</title>
<path fill="none" stroke="black" d="M893.73,-150.36C848.23,-141.31 783.93,-126.81 729.38,-108 727.26,-107.27 725.1,-106.46 722.94,-105.6"/>
<polygon fill="black" stroke="black" points="724.18,-102.32 713.61,-101.62 721.43,-108.76 724.18,-102.32"/>
</g>
<!-- menu -->
<g id="node10" class="node">
<title>menu</title>
<ellipse fill="none" stroke="black" cx="770.38" cy="-90" rx="32.48" ry="18"/>
<text text-anchor="middle" x="770.38" y="-85.8" font-family="Times,serif" font-size="14.00">menu</text>
</g>
<!-- multipane_menu&#45;&gt;menu -->
<g id="edge9" class="edge">
<title>multipane_menu&#45;&gt;menu</title>
<path fill="none" stroke="black" d="M912.74,-146.5C884.41,-136.04 845.43,-121.45 811.38,-108 809.28,-107.17 807.13,-106.31 804.96,-105.44"/>
<polygon fill="black" stroke="black" points="806.06,-102.1 795.48,-101.56 803.41,-108.58 806.06,-102.1"/>
</g>
<!-- navigation -->
<g id="node11" class="node">
<title>navigation</title>
<ellipse fill="none" stroke="black" cx="872.38" cy="-90" rx="51.61" ry="18"/>
<text text-anchor="middle" x="872.38" y="-85.8" font-family="Times,serif" font-size="14.00">navigation</text>
</g>
<!-- multipane_menu&#45;&gt;navigation -->
<g id="edge10" class="edge">
<title>multipane_menu&#45;&gt;navigation</title>
<path fill="none" stroke="black" d="M933.42,-144.41C922.91,-135.21 909.69,-123.64 898.24,-113.63"/>
<polygon fill="black" stroke="black" points="900.48,-110.94 890.65,-106.99 895.87,-116.21 900.48,-110.94"/>
</g>
<!-- otp -->
<g id="node12" class="node">
<title>otp</title>
<ellipse fill="none" stroke="black" cx="1129.38" cy="-90" rx="27" ry="18"/>
<text text-anchor="middle" x="1129.38" y="-85.8" font-family="Times,serif" font-size="14.00">otp</text>
</g>
<!-- multipane_menu&#45;&gt;otp -->
<g id="edge11" class="edge">
<title>multipane_menu&#45;&gt;otp</title>
<path fill="none" stroke="black" d="M993.14,-146.68C1021.49,-136.47 1060.03,-122.12 1093.38,-108 1095.2,-107.23 1097.05,-106.42 1098.92,-105.6"/>
<polygon fill="black" stroke="black" points="1100.55,-108.7 1108.19,-101.36 1097.64,-102.33 1100.55,-108.7"/>
</g>
<!-- photo -->
<g id="node13" class="node">
<title>photo</title>
<ellipse fill="none" stroke="black" cx="1051.38" cy="-90" rx="33.07" ry="18"/>
<text text-anchor="middle" x="1051.38" y="-85.8" font-family="Times,serif" font-size="14.00">photo</text>
</g>
<!-- multipane_menu&#45;&gt;photo -->
<g id="edge12" class="edge">
<title>multipane_menu&#45;&gt;photo</title>
<path fill="none" stroke="black" d="M975.34,-144.76C989.67,-134.64 1008.2,-121.53 1023.39,-110.79"/>
<polygon fill="black" stroke="black" points="1025.74,-113.42 1031.88,-104.79 1021.7,-107.7 1025.74,-113.42"/>
</g>
<!-- pin_code -->
<g id="node14" class="node">
<title>pin_code</title>
<ellipse fill="none" stroke="black" cx="1220.38" cy="-90" rx="46.37" ry="18"/>
<text text-anchor="middle" x="1220.38" y="-85.8" font-family="Times,serif" font-size="14.00">pin_code</text>
</g>
<!-- multipane_menu&#45;&gt;pin_code -->
<g id="edge13" class="edge">
<title>multipane_menu&#45;&gt;pin_code</title>
<path fill="none" stroke="black" d="M1004.68,-148.85C1047.93,-138.59 1110.87,-123.19 1165.38,-108 1168.76,-107.06 1172.24,-106.06 1175.74,-105.03"/>
<polygon fill="black" stroke="black" points="1176.98,-108.31 1185.55,-102.09 1174.97,-101.6 1176.98,-108.31"/>
</g>
<!-- qr_code -->
<g id="node15" class="node">
<title>qr_code</title>
<ellipse fill="none" stroke="black" cx="1327.38" cy="-90" rx="42.28" ry="18"/>
<text text-anchor="middle" x="1327.38" y="-85.8" font-family="Times,serif" font-size="14.00">qr_code</text>
</g>
<!-- multipane_menu&#45;&gt;qr_code -->
<g id="edge14" class="edge">
<title>multipane_menu&#45;&gt;qr_code</title>
<path fill="none" stroke="black" d="M1018.55,-153.16C1084.26,-144.67 1187.6,-129.42 1275.38,-108 1278.96,-107.13 1282.65,-106.13 1286.33,-105.06"/>
<polygon fill="black" stroke="black" points="1287.43,-108.38 1295.98,-102.12 1285.39,-101.69 1287.43,-108.38"/>
</g>
<!-- shared_element_transitions -->
<g id="node16" class="node">
<title>shared_element_transitions</title>
<ellipse fill="none" stroke="black" cx="1504.38" cy="-90" rx="116.89" ry="18"/>
<text text-anchor="middle" x="1504.38" y="-85.8" font-family="Times,serif" font-size="14.00">shared_element_transitions</text>
</g>
<!-- multipane_menu&#45;&gt;shared_element_transitions -->
<g id="edge15" class="edge">
<title>multipane_menu&#45;&gt;shared_element_transitions</title>
<path fill="none" stroke="black" d="M1018.45,-152.99C1102.22,-142.8 1251.07,-124.51 1378.38,-108 1388.58,-106.68 1399.25,-105.27 1409.86,-103.86"/>
<polygon fill="black" stroke="black" points="1410.57,-107.3 1420.02,-102.51 1409.64,-100.36 1410.57,-107.3"/>
</g>
<!-- tutorial -->
<g id="node17" class="node">
<title>tutorial</title>
<ellipse fill="none" stroke="black" cx="1678.38" cy="-90" rx="38.86" ry="18"/>
<text text-anchor="middle" x="1678.38" y="-85.8" font-family="Times,serif" font-size="14.00">tutorial</text>
</g>
<!-- multipane_menu&#45;&gt;tutorial -->
<g id="edge16" class="edge">
<title>multipane_menu&#45;&gt;tutorial</title>
<path fill="none" stroke="black" d="M1028.3,-161.51C1154.64,-160.93 1415.42,-153.64 1630.38,-108 1633.62,-107.31 1636.95,-106.46 1640.26,-105.51"/>
<polygon fill="black" stroke="black" points="1641.57,-108.76 1650.05,-102.41 1639.46,-102.09 1641.57,-108.76"/>
</g>
<!-- uploader -->
<g id="node18" class="node">
<title>uploader</title>
<ellipse fill="none" stroke="black" cx="1780.38" cy="-90" rx="44.65" ry="18"/>
<text text-anchor="middle" x="1780.38" y="-85.8" font-family="Times,serif" font-size="14.00">uploader</text>
</g>
<!-- multipane_menu&#45;&gt;uploader -->
<g id="edge17" class="edge">
<title>multipane_menu&#45;&gt;uploader</title>
<path fill="none" stroke="black" d="M1028.39,-161.72C1167.96,-161.73 1473.92,-155.68 1726.38,-108 1730.29,-107.26 1734.31,-106.33 1738.31,-105.29"/>
<polygon fill="black" stroke="black" points="1739.47,-108.6 1748.15,-102.51 1737.57,-101.86 1739.47,-108.6"/>
</g>
<!-- video -->
<g id="node19" class="node">
<title>video</title>
<ellipse fill="none" stroke="black" cx="1051.38" cy="-18" rx="32.48" ry="18"/>
<text text-anchor="middle" x="1051.38" y="-13.8" font-family="Times,serif" font-size="14.00">video</text>
</g>
<!-- multipane_menu&#45;&gt;video -->
<g id="edge18" class="edge">
<title>multipane_menu&#45;&gt;video</title>
<path fill="none" stroke="black" d="M962.6,-143.94C973.65,-125.77 992.01,-96.34 1009.38,-72 1016.38,-62.2 1024.51,-51.74 1031.75,-42.72"/>
<polygon fill="black" stroke="black" points="1034.5,-44.89 1038.08,-34.91 1029.07,-40.48 1034.5,-44.89"/>
</g>
<!-- work_manager -->
<g id="node20" class="node">
<title>work_manager</title>
<ellipse fill="none" stroke="black" cx="1912.38" cy="-90" rx="68.9" ry="18"/>
<text text-anchor="middle" x="1912.38" y="-85.8" font-family="Times,serif" font-size="14.00">work_manager</text>
</g>
<!-- multipane_menu&#45;&gt;work_manager -->
<g id="edge19" class="edge">
<title>multipane_menu&#45;&gt;work_manager</title>
<path fill="none" stroke="black" d="M1028.28,-160.38C1181.42,-158.26 1538.06,-148.94 1834.38,-108 1840.6,-107.14 1847.06,-106.05 1853.47,-104.85"/>
<polygon fill="black" stroke="black" points="1854.36,-108.24 1863.49,-102.87 1853,-101.37 1854.36,-108.24"/>
</g>
<!-- photo&#45;&gt;image -->
<g id="edge20" class="edge">
<title>photo&#45;&gt;image</title>
<path fill="none" stroke="black" d="M1031.82,-75.17C1017.14,-64.79 996.82,-50.42 980.41,-38.82"/>
<polygon fill="black" stroke="black" points="982.42,-35.96 972.24,-33.04 978.38,-41.67 982.42,-35.96"/>
</g>
<!-- photo&#45;&gt;video -->
<g id="edge21" class="edge">
<title>photo&#45;&gt;video</title>
<path fill="none" stroke="black" d="M1051.38,-71.7C1051.38,-63.98 1051.38,-54.71 1051.38,-46.11"/>
<polygon fill="black" stroke="black" points="1054.88,-46.1 1051.38,-36.1 1047.88,-46.1 1054.88,-46.1"/>
</g>
<!-- root -->
<g id="node21" class="node">
<title>root</title>
<ellipse fill="none" stroke="black" cx="952.38" cy="-234" rx="27" ry="18"/>
<text text-anchor="middle" x="952.38" y="-229.8" font-family="Times,serif" font-size="14.00">root</text>
</g>
<!-- root&#45;&gt;multipane_menu -->
<g id="edge31" class="edge">
<title>root&#45;&gt;multipane_menu</title>
<path fill="none" stroke="black" d="M952.38,-215.7C952.38,-207.98 952.38,-198.71 952.38,-190.11"/>
<polygon fill="black" stroke="black" points="955.88,-190.1 952.38,-180.1 948.88,-190.1 955.88,-190.1"/>
</g>
<!-- root&#45;&gt;calendar -->
<g id="edge22" class="edge">
<title>root&#45;&gt;calendar</title>
<path fill="none" stroke="black" d="M925.47,-232.12C815.13,-228.33 397.13,-212.11 269.38,-180 207.1,-164.35 139.81,-131.05 100.75,-109.92"/>
<polygon fill="black" stroke="black" points="102.37,-106.82 91.91,-105.09 99.01,-112.96 102.37,-106.82"/>
</g>
<!-- root&#45;&gt;charts -->
<g id="edge23" class="edge">
<title>root&#45;&gt;charts</title>
<path fill="none" stroke="black" d="M925.34,-233.46C841.8,-234.27 580.93,-232.13 373.38,-180 307.43,-163.44 235.46,-129.04 195.22,-108.2"/>
<polygon fill="black" stroke="black" points="196.66,-105 186.18,-103.46 193.41,-111.2 196.66,-105"/>
</g>
<!-- root&#45;&gt;chat -->
<g id="edge24" class="edge">
<title>root&#45;&gt;chat</title>
<path fill="none" stroke="black" d="M925.45,-231.48C856.02,-227.19 665.52,-213.09 510.38,-180 404.79,-157.48 379,-147.15 278.38,-108 276.55,-107.29 274.67,-106.52 272.79,-105.72"/>
<polygon fill="black" stroke="black" points="274.04,-102.45 263.49,-101.57 271.19,-108.84 274.04,-102.45"/>
</g>
<!-- root&#45;&gt;collapsing_toolbar -->
<g id="edge25" class="edge">
<title>root&#45;&gt;collapsing_toolbar</title>
<path fill="none" stroke="black" d="M925.76,-230.74C867.6,-225.41 725.12,-210.16 609.38,-180 590.38,-175.05 482.95,-134.22 418.77,-109.62"/>
<polygon fill="black" stroke="black" points="419.84,-106.28 409.24,-105.97 417.33,-112.82 419.84,-106.28"/>
</g>
<!-- root&#45;&gt;document -->
<g id="edge26" class="edge">
<title>root&#45;&gt;document</title>
<path fill="none" stroke="black" d="M925.96,-230.21C877.79,-224.57 772.98,-209.74 689.38,-180 639.12,-162.12 585.29,-131.57 552.22,-111.33"/>
<polygon fill="black" stroke="black" points="553.81,-108.2 543.47,-105.91 550.13,-114.15 553.81,-108.2"/>
</g>
<!-- root&#45;&gt;form -->
<g id="edge27" class="edge">
<title>root&#45;&gt;form</title>
<path fill="none" stroke="black" d="M926.33,-228.66C887.78,-221.65 813.81,-205.94 755.38,-180 713.29,-161.32 669.38,-130.78 642.7,-110.78"/>
<polygon fill="black" stroke="black" points="644.75,-107.95 634.67,-104.69 640.52,-113.52 644.75,-107.95"/>
</g>
<!-- root&#45;&gt;image -->
<g id="edge28" class="edge">
<title>root&#45;&gt;image</title>
<path fill="none" stroke="black" d="M925.26,-232.49C804.73,-230.03 317.02,-217.89 169.38,-180 88.05,-159.13 -43.29,-133.02 14.38,-72 45.41,-39.17 725.41,-23.47 907.74,-19.84"/>
<polygon fill="black" stroke="black" points="907.86,-23.33 917.78,-19.64 907.72,-16.34 907.86,-23.33"/>
</g>
<!-- root&#45;&gt;map -->
<g id="edge29" class="edge">
<title>root&#45;&gt;map</title>
<path fill="none" stroke="black" d="M928.29,-225.77C900.26,-216.89 853.03,-200.46 815.38,-180 778.71,-160.07 740.35,-130.75 716.42,-111.28"/>
<polygon fill="black" stroke="black" points="718.53,-108.48 708.58,-104.83 714.08,-113.89 718.53,-108.48"/>
</g>
<!-- root&#45;&gt;menu -->
<g id="edge30" class="edge">
<title>root&#45;&gt;menu</title>
<path fill="none" stroke="black" d="M930.28,-223.14C910.06,-213.59 879.81,-197.94 856.38,-180 831,-160.57 806.08,-133.67 789.65,-114.54"/>
<polygon fill="black" stroke="black" points="792.29,-112.24 783.16,-106.87 786.95,-116.76 792.29,-112.24"/>
</g>
<!-- root&#45;&gt;navigation -->
<g id="edge32" class="edge">
<title>root&#45;&gt;navigation</title>
<path fill="none" stroke="black" d="M928.44,-225.46C908.13,-217.65 880.29,-203.27 867.38,-180 856.91,-161.13 859.33,-136.42 863.7,-117.83"/>
<polygon fill="black" stroke="black" points="867.14,-118.5 866.34,-107.94 860.38,-116.7 867.14,-118.5"/>
</g>
<!-- root&#45;&gt;otp -->
<g id="edge33" class="edge">
<title>root&#45;&gt;otp</title>
<path fill="none" stroke="black" d="M975.98,-224.64C998.66,-215.85 1033.11,-200.45 1058.38,-180 1081.06,-161.64 1101.19,-134.86 1114.17,-115.48"/>
<polygon fill="black" stroke="black" points="1117.25,-117.17 1119.79,-106.89 1111.39,-113.34 1117.25,-117.17"/>
</g>
<!-- root&#45;&gt;photo -->
<g id="edge34" class="edge">
<title>root&#45;&gt;photo</title>
<path fill="none" stroke="black" d="M975.84,-224.78C995.56,-216.59 1022.79,-202.04 1037.38,-180 1049.42,-161.82 1052.49,-137.04 1052.8,-118.25"/>
<polygon fill="black" stroke="black" points="1056.3,-118.21 1052.72,-108.24 1049.3,-118.27 1056.3,-118.21"/>
</g>
<!-- root&#45;&gt;pin_code -->
<g id="edge35" class="edge">
<title>root&#45;&gt;pin_code</title>
<path fill="none" stroke="black" d="M976.56,-225.62C1004.7,-216.61 1052.21,-200.04 1090.38,-180 1127.8,-160.35 1167.42,-131.99 1192.94,-112.6"/>
<polygon fill="black" stroke="black" points="1195.23,-115.26 1201.03,-106.39 1190.97,-109.7 1195.23,-115.26"/>
</g>
<!-- root&#45;&gt;qr_code -->
<g id="edge36" class="edge">
<title>root&#45;&gt;qr_code</title>
<path fill="none" stroke="black" d="M977.49,-226.95C1012.95,-218.12 1079.51,-200.51 1134.38,-180 1191.1,-158.8 1254.4,-128.21 1292.55,-108.98"/>
<polygon fill="black" stroke="black" points="1294.35,-111.99 1301.68,-104.35 1291.18,-105.75 1294.35,-111.99"/>
</g>
<!-- root&#45;&gt;shared_element_transitions -->
<g id="edge38" class="edge">
<title>root&#45;&gt;shared_element_transitions</title>
<path fill="none" stroke="black" d="M977.74,-227.81C1021.23,-218.8 1112.74,-199.38 1189.38,-180 1278.42,-157.49 1380.57,-127.93 1443.8,-109.19"/>
<polygon fill="black" stroke="black" points="1445.01,-112.49 1453.6,-106.28 1443.02,-105.77 1445.01,-112.49"/>
</g>
<!-- root&#45;&gt;tutorial -->
<g id="edge39" class="edge">
<title>root&#45;&gt;tutorial</title>
<path fill="none" stroke="black" d="M978.93,-229.78C1070.53,-218.33 1381.41,-176.54 1630.38,-108 1633.35,-107.18 1636.41,-106.27 1639.46,-105.31"/>
<polygon fill="black" stroke="black" points="1640.75,-108.57 1649.15,-102.1 1638.55,-101.92 1640.75,-108.57"/>
</g>
<!-- root&#45;&gt;uploader -->
<g id="edge40" class="edge">
<title>root&#45;&gt;uploader</title>
<path fill="none" stroke="black" d="M979.15,-231.01C1050.45,-225.46 1250.74,-208.39 1415.38,-180 1555.2,-155.89 1589.5,-145.33 1726.38,-108 1729.91,-107.04 1733.55,-106 1737.2,-104.92"/>
<polygon fill="black" stroke="black" points="1738.24,-108.26 1746.8,-102.02 1736.21,-101.56 1738.24,-108.26"/>
</g>
<!-- root&#45;&gt;video -->
<g id="edge41" class="edge">
<title>root&#45;&gt;video</title>
<path fill="none" stroke="black" d="M979.25,-231.93C1135.61,-225.41 1923.82,-188.68 1990.38,-108 2000.56,-95.66 2001.37,-83.63 1990.38,-72 1959.2,-39 1273.24,-23.33 1093.94,-19.79"/>
<polygon fill="black" stroke="black" points="1093.91,-16.29 1083.84,-19.6 1093.77,-23.29 1093.91,-16.29"/>
</g>
<!-- root&#45;&gt;work_manager -->
<g id="edge42" class="edge">
<title>root&#45;&gt;work_manager</title>
<path fill="none" stroke="black" d="M979.25,-231.69C1060.59,-227.47 1311.19,-212.56 1516.38,-180 1638.77,-160.58 1779.87,-125.84 1856.23,-106"/>
<polygon fill="black" stroke="black" points="1857.32,-109.33 1866.12,-103.42 1855.56,-102.56 1857.32,-109.33"/>
</g>
<!-- settings -->
<g id="node22" class="node">
<title>settings</title>
<ellipse fill="none" stroke="black" cx="2078.38" cy="-162" rx="40.58" ry="18"/>
<text text-anchor="middle" x="2078.38" y="-157.8" font-family="Times,serif" font-size="14.00">settings</text>
</g>
<!-- root&#45;&gt;settings -->
<g id="edge37" class="edge">
<title>root&#45;&gt;settings</title>
<path fill="none" stroke="black" d="M979.55,-232.58C1125.12,-230.16 1813.92,-216.95 2023.38,-180 2028.17,-179.15 2033.13,-178.02 2038.02,-176.73"/>
<polygon fill="black" stroke="black" points="2039.23,-180.02 2047.88,-173.91 2037.3,-173.29 2039.23,-180.02"/>
</g>
</g>
</svg>
