<svg width="2293px" height="188px"
 viewBox="0.00 0.00 2292.59 188.00" xmlns="http://www.w3.org/2000/svg" xmlns:xlink="http://www.w3.org/1999/xlink">
<g id="graph0" class="graph" transform="scale(1.0 1.0) rotate(0.0) translate(4.0 184.0)">
<polygon fill="white" stroke="transparent" points="-4,4 -4,-184 2288.59,-184 2288.59,4 -4,4"/>
<!-- photo -->
<g id="node1" class="node">
<title>photo</title>
<ellipse fill="none" stroke="black" cx="77.63" cy="-90" rx="33.07" ry="18"/>
<text text-anchor="middle" x="77.63" y="-85.8" font-family="Times,serif" font-size="14.00">photo</text>
</g>
<!-- image -->
<g id="node2" class="node">
<title>image</title>
<ellipse fill="none" stroke="black" cx="34.63" cy="-18" rx="34.77" ry="18"/>
<text text-anchor="middle" x="34.63" y="-13.8" font-family="Times,serif" font-size="14.00">image</text>
</g>
<!-- photo&#45;&gt;image -->
<g id="edge1" class="edge">
<title>photo&#45;&gt;image</title>
<path fill="none" stroke="black" d="M67.66,-72.76C62.47,-64.32 56.01,-53.8 50.18,-44.31"/>
<polygon fill="black" stroke="black" points="53.07,-42.32 44.85,-35.63 47.1,-45.99 53.07,-42.32"/>
</g>
<!-- video -->
<g id="node3" class="node">
<title>video</title>
<ellipse fill="none" stroke="black" cx="128.63" cy="-18" rx="32.48" ry="18"/>
<text text-anchor="middle" x="128.63" y="-13.8" font-family="Times,serif" font-size="14.00">video</text>
</g>
<!-- photo&#45;&gt;video -->
<g id="edge2" class="edge">
<title>photo&#45;&gt;video</title>
<path fill="none" stroke="black" d="M89.21,-73.12C95.57,-64.38 103.61,-53.35 110.76,-43.54"/>
<polygon fill="black" stroke="black" points="113.69,-45.45 116.75,-35.31 108.04,-41.33 113.69,-45.45"/>
</g>
<!-- root -->
<g id="node4" class="node">
<title>root</title>
<ellipse fill="none" stroke="black" cx="964.63" cy="-162" rx="27" ry="18"/>
<text text-anchor="middle" x="964.63" y="-157.8" font-family="Times,serif" font-size="14.00">root</text>
</g>
<!-- root&#45;&gt;photo -->
<g id="edge16" class="edge">
<title>root&#45;&gt;photo</title>
<path fill="none" stroke="black" d="M937.75,-160.33C812.49,-157.05 285.58,-141.47 124.63,-108 120.73,-107.19 116.72,-106.12 112.75,-104.91"/>
<polygon fill="black" stroke="black" points="113.7,-101.54 103.11,-101.7 111.49,-108.18 113.7,-101.54"/>
</g>
<!-- root&#45;&gt;image -->
<g id="edge11" class="edge">
<title>root&#45;&gt;image</title>
<path fill="none" stroke="black" d="M937.37,-160.48C787.31,-157.5 67.61,-141.47 35.63,-108 20.18,-91.82 21.89,-65.48 26.28,-45.65"/>
<polygon fill="black" stroke="black" points="29.68,-46.51 28.75,-35.95 22.89,-44.78 29.68,-46.51"/>
</g>
<!-- root&#45;&gt;video -->
<g id="edge23" class="edge">
<title>root&#45;&gt;video</title>
<path fill="none" stroke="black" d="M937.46,-160.99C803.83,-160.73 220.41,-156.79 157.63,-108 138.95,-93.48 132.14,-66.68 129.74,-46.27"/>
<polygon fill="black" stroke="black" points="133.22,-45.93 128.85,-36.28 126.25,-46.55 133.22,-45.93"/>
</g>
<!-- audio -->
<g id="node5" class="node">
<title>audio</title>
<ellipse fill="none" stroke="black" cx="198.63" cy="-90" rx="32.48" ry="18"/>
<text text-anchor="middle" x="198.63" y="-85.8" font-family="Times,serif" font-size="14.00">audio</text>
</g>
<!-- root&#45;&gt;audio -->
<g id="edge3" class="edge">
<title>root&#45;&gt;audio</title>
<path fill="none" stroke="black" d="M937.66,-160.18C823.06,-156.52 376.24,-140.42 239.63,-108 237.14,-107.41 234.6,-106.68 232.08,-105.87"/>
<polygon fill="black" stroke="black" points="233.08,-102.51 222.49,-102.39 230.69,-109.09 233.08,-102.51"/>
</g>
<!-- calendar -->
<g id="node6" class="node">
<title>calendar</title>
<ellipse fill="none" stroke="black" cx="292.63" cy="-90" rx="43.98" ry="18"/>
<text text-anchor="middle" x="292.63" y="-85.8" font-family="Times,serif" font-size="14.00">calendar</text>
</g>
<!-- root&#45;&gt;calendar -->
<g id="edge4" class="edge">
<title>root&#45;&gt;calendar</title>
<path fill="none" stroke="black" d="M937.48,-160.84C850.48,-159.88 571.15,-153.22 345.63,-108 341.8,-107.23 337.85,-106.28 333.93,-105.22"/>
<polygon fill="black" stroke="black" points="334.86,-101.85 324.28,-102.43 332.91,-108.57 334.86,-101.85"/>
</g>
<!-- charts -->
<g id="node7" class="node">
<title>charts</title>
<ellipse fill="none" stroke="black" cx="388.63" cy="-90" rx="34.19" ry="18"/>
<text text-anchor="middle" x="388.63" y="-85.8" font-family="Times,serif" font-size="14.00">charts</text>
</g>
<!-- root&#45;&gt;charts -->
<g id="edge5" class="edge">
<title>root&#45;&gt;charts</title>
<path fill="none" stroke="black" d="M937.57,-160.94C858.5,-160.2 621.42,-154 431.63,-108 428.85,-107.33 426.02,-106.51 423.19,-105.61"/>
<polygon fill="black" stroke="black" points="424.32,-102.29 413.72,-102.26 421.99,-108.89 424.32,-102.29"/>
</g>
<!-- chat -->
<g id="node8" class="node">
<title>chat</title>
<ellipse fill="none" stroke="black" cx="467.63" cy="-90" rx="27.24" ry="18"/>
<text text-anchor="middle" x="467.63" y="-85.8" font-family="Times,serif" font-size="14.00">chat</text>
</g>
<!-- root&#45;&gt;chat -->
<g id="edge6" class="edge">
<title>root&#45;&gt;chat</title>
<path fill="none" stroke="black" d="M937.54,-160.94C865.46,-160.13 663.62,-153.63 503.63,-108 501.69,-107.45 499.72,-106.8 497.76,-106.08"/>
<polygon fill="black" stroke="black" points="498.7,-102.68 488.13,-102.08 496.02,-109.15 498.7,-102.68"/>
</g>
<!-- collapsing_toolbar -->
<g id="node9" class="node">
<title>collapsing_toolbar</title>
<ellipse fill="none" stroke="black" cx="595.63" cy="-90" rx="82.83" ry="18"/>
<text text-anchor="middle" x="595.63" y="-85.8" font-family="Times,serif" font-size="14.00">collapsing_toolbar</text>
</g>
<!-- root&#45;&gt;collapsing_toolbar -->
<g id="edge7" class="edge">
<title>root&#45;&gt;collapsing_toolbar</title>
<path fill="none" stroke="black" d="M938.98,-156.13C883.15,-145.54 748.97,-120.09 665.85,-104.32"/>
<polygon fill="black" stroke="black" points="666.45,-100.87 655.97,-102.45 665.15,-107.75 666.45,-100.87"/>
</g>
<!-- divkit -->
<g id="node10" class="node">
<title>divkit</title>
<ellipse fill="none" stroke="black" cx="729.63" cy="-90" rx="33.65" ry="18"/>
<text text-anchor="middle" x="729.63" y="-85.8" font-family="Times,serif" font-size="14.00">divkit</text>
</g>
<!-- root&#45;&gt;divkit -->
<g id="edge8" class="edge">
<title>root&#45;&gt;divkit</title>
<path fill="none" stroke="black" d="M939.52,-154.98C902.6,-145.93 831.66,-127.75 772.63,-108 770.08,-107.15 767.46,-106.22 764.83,-105.27"/>
<polygon fill="black" stroke="black" points="765.98,-101.96 755.39,-101.7 763.51,-108.51 765.98,-101.96"/>
</g>
<!-- document -->
<g id="node11" class="node">
<title>document</title>
<ellipse fill="none" stroke="black" cx="830.63" cy="-90" rx="49.24" ry="18"/>
<text text-anchor="middle" x="830.63" y="-85.8" font-family="Times,serif" font-size="14.00">document</text>
</g>
<!-- root&#45;&gt;document -->
<g id="edge9" class="edge">
<title>root&#45;&gt;document</title>
<path fill="none" stroke="black" d="M943.99,-150.22C923.42,-139.47 891.41,-122.75 866.65,-109.81"/>
<polygon fill="black" stroke="black" points="868.04,-106.59 857.55,-105.06 864.8,-112.79 868.04,-106.59"/>
</g>
<!-- form -->
<g id="node12" class="node">
<title>form</title>
<ellipse fill="none" stroke="black" cx="927.63" cy="-90" rx="29.61" ry="18"/>
<text text-anchor="middle" x="927.63" y="-85.8" font-family="Times,serif" font-size="14.00">form</text>
</g>
<!-- root&#45;&gt;form -->
<g id="edge10" class="edge">
<title>root&#45;&gt;form</title>
<path fill="none" stroke="black" d="M956.05,-144.76C951.63,-136.4 946.14,-126.02 941.17,-116.61"/>
<polygon fill="black" stroke="black" points="944.19,-114.84 936.43,-107.63 938,-118.11 944.19,-114.84"/>
</g>
<!-- map -->
<g id="node13" class="node">
<title>map</title>
<ellipse fill="none" stroke="black" cx="1002.63" cy="-90" rx="27.83" ry="18"/>
<text text-anchor="middle" x="1002.63" y="-85.8" font-family="Times,serif" font-size="14.00">map</text>
</g>
<!-- root&#45;&gt;map -->
<g id="edge12" class="edge">
<title>root&#45;&gt;map</title>
<path fill="none" stroke="black" d="M973.45,-144.76C978.05,-136.28 983.79,-125.71 988.96,-116.2"/>
<polygon fill="black" stroke="black" points="992.17,-117.61 993.87,-107.15 986.02,-114.27 992.17,-117.61"/>
</g>
<!-- menu -->
<g id="node14" class="node">
<title>menu</title>
<ellipse fill="none" stroke="black" cx="1080.63" cy="-90" rx="32.48" ry="18"/>
<text text-anchor="middle" x="1080.63" y="-85.8" font-family="Times,serif" font-size="14.00">menu</text>
</g>
<!-- root&#45;&gt;menu -->
<g id="edge13" class="edge">
<title>root&#45;&gt;menu</title>
<path fill="none" stroke="black" d="M984.05,-149.28C1002.14,-138.37 1029.4,-121.92 1050.35,-109.28"/>
<polygon fill="black" stroke="black" points="1052.43,-112.11 1059.18,-103.94 1048.81,-106.11 1052.43,-112.11"/>
</g>
<!-- navigation -->
<g id="node15" class="node">
<title>navigation</title>
<ellipse fill="none" stroke="black" cx="1182.63" cy="-90" rx="51.61" ry="18"/>
<text text-anchor="middle" x="1182.63" y="-85.8" font-family="Times,serif" font-size="14.00">navigation</text>
</g>
<!-- root&#45;&gt;navigation -->
<g id="edge14" class="edge">
<title>root&#45;&gt;navigation</title>
<path fill="none" stroke="black" d="M988.38,-153.38C1023.75,-142.02 1090.95,-120.44 1136.27,-105.89"/>
<polygon fill="black" stroke="black" points="1137.43,-109.19 1145.88,-102.8 1135.29,-102.53 1137.43,-109.19"/>
</g>
<!-- otp -->
<g id="node16" class="node">
<title>otp</title>
<ellipse fill="none" stroke="black" cx="1279.63" cy="-90" rx="27" ry="18"/>
<text text-anchor="middle" x="1279.63" y="-85.8" font-family="Times,serif" font-size="14.00">otp</text>
</g>
<!-- root&#45;&gt;otp -->
<g id="edge15" class="edge">
<title>root&#45;&gt;otp</title>
<path fill="none" stroke="black" d="M991.35,-158.21C1041.69,-152.45 1153.61,-137.28 1243.63,-108 1245.56,-107.37 1247.51,-106.67 1249.46,-105.91"/>
<polygon fill="black" stroke="black" points="1251.24,-108.96 1259.06,-101.81 1248.49,-102.52 1251.24,-108.96"/>
</g>
<!-- pin_code -->
<g id="node17" class="node">
<title>pin_code</title>
<ellipse fill="none" stroke="black" cx="1370.63" cy="-90" rx="46.37" ry="18"/>
<text text-anchor="middle" x="1370.63" y="-85.8" font-family="Times,serif" font-size="14.00">pin_code</text>
</g>
<!-- root&#45;&gt;pin_code -->
<g id="edge17" class="edge">
<title>root&#45;&gt;pin_code</title>
<path fill="none" stroke="black" d="M991.31,-158.35C1050.3,-152.2 1196.08,-135.34 1315.63,-108 1319.26,-107.17 1322.99,-106.22 1326.72,-105.21"/>
<polygon fill="black" stroke="black" points="1327.87,-108.52 1336.52,-102.41 1325.95,-101.79 1327.87,-108.52"/>
</g>
<!-- qr_code -->
<g id="node18" class="node">
<title>qr_code</title>
<ellipse fill="none" stroke="black" cx="1477.63" cy="-90" rx="42.28" ry="18"/>
<text text-anchor="middle" x="1477.63" y="-85.8" font-family="Times,serif" font-size="14.00">qr_code</text>
</g>
<!-- root&#45;&gt;qr_code -->
<g id="edge18" class="edge">
<title>root&#45;&gt;qr_code</title>
<path fill="none" stroke="black" d="M991.45,-159.81C1062.83,-156.22 1263.11,-143.53 1425.63,-108 1429.28,-107.2 1433.04,-106.25 1436.78,-105.21"/>
<polygon fill="black" stroke="black" points="1437.99,-108.5 1446.57,-102.28 1435.99,-101.79 1437.99,-108.5"/>
</g>
<!-- remote_transfer -->
<g id="node19" class="node">
<title>remote_transfer</title>
<ellipse fill="none" stroke="black" cx="1609.63" cy="-90" rx="72.33" ry="18"/>
<text text-anchor="middle" x="1609.63" y="-85.8" font-family="Times,serif" font-size="14.00">remote_transfer</text>
</g>
<!-- root&#45;&gt;remote_transfer -->
<g id="edge19" class="edge">
<title>root&#45;&gt;remote_transfer</title>
<path fill="none" stroke="black" d="M991.48,-159.56C1072.76,-154.97 1323.22,-139.11 1528.63,-108 1534.97,-107.04 1541.56,-105.9 1548.13,-104.67"/>
<polygon fill="black" stroke="black" points="1549.23,-108.02 1558.37,-102.67 1547.89,-101.15 1549.23,-108.02"/>
</g>
<!-- settings -->
<g id="node20" class="node">
<title>settings</title>
<ellipse fill="none" stroke="black" cx="1740.63" cy="-90" rx="40.58" ry="18"/>
<text text-anchor="middle" x="1740.63" y="-85.8" font-family="Times,serif" font-size="14.00">settings</text>
</g>
<!-- root&#45;&gt;settings -->
<g id="edge20" class="edge">
<title>root&#45;&gt;settings</title>
<path fill="none" stroke="black" d="M991.67,-161.49C1087.87,-162.71 1422.19,-162.5 1690.63,-108 1694.11,-107.29 1697.67,-106.41 1701.23,-105.43"/>
<polygon fill="black" stroke="black" points="1702.55,-108.68 1711.1,-102.43 1700.51,-101.99 1702.55,-108.68"/>
</g>
<!-- shared_element_transitions -->
<g id="node21" class="node">
<title>shared_element_transitions</title>
<ellipse fill="none" stroke="black" cx="1915.63" cy="-90" rx="116.89" ry="18"/>
<text text-anchor="middle" x="1915.63" y="-85.8" font-family="Times,serif" font-size="14.00">shared_element_transitions</text>
</g>
<!-- root&#45;&gt;shared_element_transitions -->
<g id="edge21" class="edge">
<title>root&#45;&gt;shared_element_transitions</title>
<path fill="none" stroke="black" d="M991.79,-159.96C1095.63,-155.83 1477.5,-139.3 1790.63,-108 1801.4,-106.92 1812.66,-105.63 1823.82,-104.24"/>
<polygon fill="black" stroke="black" points="1824.56,-107.68 1834.04,-102.95 1823.68,-100.74 1824.56,-107.68"/>
</g>
<!-- tutorial -->
<g id="node22" class="node">
<title>tutorial</title>
<ellipse fill="none" stroke="black" cx="2089.63" cy="-90" rx="38.86" ry="18"/>
<text text-anchor="middle" x="2089.63" y="-85.8" font-family="Times,serif" font-size="14.00">tutorial</text>
</g>
<!-- root&#45;&gt;tutorial -->
<g id="edge22" class="edge">
<title>root&#45;&gt;tutorial</title>
<path fill="none" stroke="black" d="M991.98,-160.73C1138.51,-159.12 1831.8,-149.4 2041.63,-108 2044.89,-107.36 2048.22,-106.54 2051.53,-105.61"/>
<polygon fill="black" stroke="black" points="2052.83,-108.87 2061.34,-102.55 2050.75,-102.19 2052.83,-108.87"/>
</g>
<!-- work_manager -->
<g id="node23" class="node">
<title>work_manager</title>
<ellipse fill="none" stroke="black" cx="2215.63" cy="-90" rx="68.9" ry="18"/>
<text text-anchor="middle" x="2215.63" y="-85.8" font-family="Times,serif" font-size="14.00">work_manager</text>
</g>
<!-- root&#45;&gt;work_manager -->
<g id="edge24" class="edge">
<title>root&#45;&gt;work_manager</title>
<path fill="none" stroke="black" d="M991.53,-160.4C1144.41,-156.93 1905.3,-138.34 2137.63,-108 2143.95,-107.18 2150.51,-106.1 2157.02,-104.89"/>
<polygon fill="black" stroke="black" points="2158.04,-108.26 2167.18,-102.89 2156.69,-101.39 2158.04,-108.26"/>
</g>
</g>
</svg>
