<svg width="1702px" height="188px"
 viewBox="0.00 0.00 1702.01 188.00" xmlns="http://www.w3.org/2000/svg" xmlns:xlink="http://www.w3.org/1999/xlink">
<g id="graph0" class="graph" transform="scale(1.0 1.0) rotate(0.0) translate(4.0 184.0)">
<polygon fill="white" stroke="transparent" points="-4,4 -4,-184 1698.01,-184 1698.01,4 -4,4"/>
<!-- photo -->
<g id="node1" class="node">
<title>photo</title>
<ellipse fill="none" stroke="black" cx="77.63" cy="-90" rx="33.07" ry="18"/>
<text text-anchor="middle" x="77.63" y="-85.8" font-family="Times,serif" font-size="14.00">photo</text>
</g>
<!-- image -->
<g id="node2" class="node">
<title>image</title>
<ellipse fill="none" stroke="black" cx="34.63" cy="-18" rx="34.77" ry="18"/>
<text text-anchor="middle" x="34.63" y="-13.8" font-family="Times,serif" font-size="14.00">image</text>
</g>
<!-- photo&#45;&gt;image -->
<g id="edge1" class="edge">
<title>photo&#45;&gt;image</title>
<path fill="none" stroke="black" d="M67.66,-72.76C62.47,-64.32 56.01,-53.8 50.18,-44.31"/>
<polygon fill="black" stroke="black" points="53.07,-42.32 44.85,-35.63 47.1,-45.99 53.07,-42.32"/>
</g>
<!-- video -->
<g id="node3" class="node">
<title>video</title>
<ellipse fill="none" stroke="black" cx="128.63" cy="-18" rx="32.48" ry="18"/>
<text text-anchor="middle" x="128.63" y="-13.8" font-family="Times,serif" font-size="14.00">video</text>
</g>
<!-- photo&#45;&gt;video -->
<g id="edge2" class="edge">
<title>photo&#45;&gt;video</title>
<path fill="none" stroke="black" d="M89.21,-73.12C95.57,-64.38 103.61,-53.35 110.76,-43.54"/>
<polygon fill="black" stroke="black" points="113.69,-45.45 116.75,-35.31 108.04,-41.33 113.69,-45.45"/>
</g>
<!-- root -->
<g id="node4" class="node">
<title>root</title>
<ellipse fill="none" stroke="black" cx="728.63" cy="-162" rx="27" ry="18"/>
<text text-anchor="middle" x="728.63" y="-157.8" font-family="Times,serif" font-size="14.00">root</text>
</g>
<!-- root&#45;&gt;photo -->
<g id="edge12" class="edge">
<title>root&#45;&gt;photo</title>
<path fill="none" stroke="black" d="M701.47,-161.11C615.68,-160.92 343.32,-156.28 124.63,-108 120.74,-107.14 116.73,-106.04 112.77,-104.82"/>
<polygon fill="black" stroke="black" points="113.73,-101.45 103.14,-101.58 111.5,-108.08 113.73,-101.45"/>
</g>
<!-- root&#45;&gt;image -->
<g id="edge8" class="edge">
<title>root&#45;&gt;image</title>
<path fill="none" stroke="black" d="M701.43,-161.03C578.87,-160.91 81.89,-157.37 35.63,-108 20.41,-91.75 22.01,-65.59 26.31,-45.83"/>
<polygon fill="black" stroke="black" points="29.77,-46.45 28.82,-35.89 22.98,-44.74 29.77,-46.45"/>
</g>
<!-- root&#45;&gt;video -->
<g id="edge17" class="edge">
<title>root&#45;&gt;video</title>
<path fill="none" stroke="black" d="M701.58,-160.21C594.03,-156.85 200.56,-142.3 157.63,-108 139.23,-93.3 132.37,-66.71 129.88,-46.41"/>
<polygon fill="black" stroke="black" points="133.34,-45.81 128.92,-36.18 126.37,-46.47 133.34,-45.81"/>
</g>
<!-- calendar -->
<g id="node5" class="node">
<title>calendar</title>
<ellipse fill="none" stroke="black" cx="210.63" cy="-90" rx="43.98" ry="18"/>
<text text-anchor="middle" x="210.63" y="-85.8" font-family="Times,serif" font-size="14.00">calendar</text>
</g>
<!-- root&#45;&gt;calendar -->
<g id="edge3" class="edge">
<title>root&#45;&gt;calendar</title>
<path fill="none" stroke="black" d="M701.6,-159.78C629.63,-156.13 427.67,-143.29 263.63,-108 259.97,-107.21 256.2,-106.27 252.44,-105.25"/>
<polygon fill="black" stroke="black" points="253.17,-101.81 242.59,-102.37 251.21,-108.53 253.17,-101.81"/>
</g>
<!-- charts -->
<g id="node6" class="node">
<title>charts</title>
<ellipse fill="none" stroke="black" cx="306.63" cy="-90" rx="34.19" ry="18"/>
<text text-anchor="middle" x="306.63" y="-85.8" font-family="Times,serif" font-size="14.00">charts</text>
</g>
<!-- root&#45;&gt;charts -->
<g id="edge4" class="edge">
<title>root&#45;&gt;charts</title>
<path fill="none" stroke="black" d="M701.55,-159.43C638.76,-155.3 478.77,-142.04 349.63,-108 347.03,-107.31 344.37,-106.52 341.72,-105.65"/>
<polygon fill="black" stroke="black" points="342.82,-102.32 332.22,-102.26 340.47,-108.92 342.82,-102.32"/>
</g>
<!-- collapsing_toolbar -->
<g id="node7" class="node">
<title>collapsing_toolbar</title>
<ellipse fill="none" stroke="black" cx="441.63" cy="-90" rx="82.83" ry="18"/>
<text text-anchor="middle" x="441.63" y="-85.8" font-family="Times,serif" font-size="14.00">collapsing_toolbar</text>
</g>
<!-- root&#45;&gt;collapsing_toolbar -->
<g id="edge5" class="edge">
<title>root&#45;&gt;collapsing_toolbar</title>
<path fill="none" stroke="black" d="M703.67,-154.91C659.59,-144.16 566.74,-121.51 504.26,-106.28"/>
<polygon fill="black" stroke="black" points="505.05,-102.87 494.51,-103.9 503.39,-109.67 505.05,-102.87"/>
</g>
<!-- document -->
<g id="node8" class="node">
<title>document</title>
<ellipse fill="none" stroke="black" cx="591.63" cy="-90" rx="49.24" ry="18"/>
<text text-anchor="middle" x="591.63" y="-85.8" font-family="Times,serif" font-size="14.00">document</text>
</g>
<!-- root&#45;&gt;document -->
<g id="edge6" class="edge">
<title>root&#45;&gt;document</title>
<path fill="none" stroke="black" d="M707.83,-150.37C686.76,-139.6 653.75,-122.74 628.28,-109.73"/>
<polygon fill="black" stroke="black" points="629.78,-106.56 619.28,-105.13 626.59,-112.79 629.78,-106.56"/>
</g>
<!-- form -->
<g id="node9" class="node">
<title>form</title>
<ellipse fill="none" stroke="black" cx="688.63" cy="-90" rx="29.61" ry="18"/>
<text text-anchor="middle" x="688.63" y="-85.8" font-family="Times,serif" font-size="14.00">form</text>
</g>
<!-- root&#45;&gt;form -->
<g id="edge7" class="edge">
<title>root&#45;&gt;form</title>
<path fill="none" stroke="black" d="M719.36,-144.76C714.46,-136.19 708.35,-125.49 702.86,-115.9"/>
<polygon fill="black" stroke="black" points="705.86,-114.09 697.86,-107.15 699.78,-117.57 705.86,-114.09"/>
</g>
<!-- menu -->
<g id="node10" class="node">
<title>menu</title>
<ellipse fill="none" stroke="black" cx="768.63" cy="-90" rx="32.48" ry="18"/>
<text text-anchor="middle" x="768.63" y="-85.8" font-family="Times,serif" font-size="14.00">menu</text>
</g>
<!-- root&#45;&gt;menu -->
<g id="edge9" class="edge">
<title>root&#45;&gt;menu</title>
<path fill="none" stroke="black" d="M737.91,-144.76C742.69,-136.4 748.63,-126.02 754,-116.61"/>
<polygon fill="black" stroke="black" points="757.21,-118.05 759.13,-107.63 751.13,-114.58 757.21,-118.05"/>
</g>
<!-- navigation -->
<g id="node11" class="node">
<title>navigation</title>
<ellipse fill="none" stroke="black" cx="870.63" cy="-90" rx="51.61" ry="18"/>
<text text-anchor="middle" x="870.63" y="-85.8" font-family="Times,serif" font-size="14.00">navigation</text>
</g>
<!-- root&#45;&gt;navigation -->
<g id="edge10" class="edge">
<title>root&#45;&gt;navigation</title>
<path fill="none" stroke="black" d="M749.89,-150.52C771.83,-139.71 806.51,-122.61 833.08,-109.51"/>
<polygon fill="black" stroke="black" points="834.68,-112.62 842.11,-105.06 831.59,-106.35 834.68,-112.62"/>
</g>
<!-- otp -->
<g id="node12" class="node">
<title>otp</title>
<ellipse fill="none" stroke="black" cx="967.63" cy="-90" rx="27" ry="18"/>
<text text-anchor="middle" x="967.63" y="-85.8" font-family="Times,serif" font-size="14.00">otp</text>
</g>
<!-- root&#45;&gt;otp -->
<g id="edge11" class="edge">
<title>root&#45;&gt;otp</title>
<path fill="none" stroke="black" d="M754.09,-155.95C793.01,-147.87 869.32,-130.62 931.63,-108 933.49,-107.33 935.37,-106.59 937.26,-105.82"/>
<polygon fill="black" stroke="black" points="938.84,-108.95 946.59,-101.74 936.03,-102.54 938.84,-108.95"/>
</g>
<!-- pin_code -->
<g id="node13" class="node">
<title>pin_code</title>
<ellipse fill="none" stroke="black" cx="1058.63" cy="-90" rx="46.37" ry="18"/>
<text text-anchor="middle" x="1058.63" y="-85.8" font-family="Times,serif" font-size="14.00">pin_code</text>
</g>
<!-- root&#45;&gt;pin_code -->
<g id="edge13" class="edge">
<title>root&#45;&gt;pin_code</title>
<path fill="none" stroke="black" d="M754.62,-156.97C803.66,-149.14 913.07,-130.65 1003.63,-108 1007.24,-107.1 1010.96,-106.1 1014.68,-105.05"/>
<polygon fill="black" stroke="black" points="1015.85,-108.36 1024.47,-102.19 1013.89,-101.64 1015.85,-108.36"/>
</g>
<!-- qr_code -->
<g id="node14" class="node">
<title>qr_code</title>
<ellipse fill="none" stroke="black" cx="1165.63" cy="-90" rx="42.28" ry="18"/>
<text text-anchor="middle" x="1165.63" y="-85.8" font-family="Times,serif" font-size="14.00">qr_code</text>
</g>
<!-- root&#45;&gt;qr_code -->
<g id="edge14" class="edge">
<title>root&#45;&gt;qr_code</title>
<path fill="none" stroke="black" d="M755.54,-158.97C818.7,-153.83 981.15,-138.52 1113.63,-108 1117.27,-107.16 1121.02,-106.18 1124.76,-105.12"/>
<polygon fill="black" stroke="black" points="1125.98,-108.41 1134.54,-102.17 1123.96,-101.7 1125.98,-108.41"/>
</g>
<!-- shared_element_transitions -->
<g id="node15" class="node">
<title>shared_element_transitions</title>
<ellipse fill="none" stroke="black" cx="1342.63" cy="-90" rx="116.89" ry="18"/>
<text text-anchor="middle" x="1342.63" y="-85.8" font-family="Times,serif" font-size="14.00">shared_element_transitions</text>
</g>
<!-- root&#45;&gt;shared_element_transitions -->
<g id="edge15" class="edge">
<title>root&#45;&gt;shared_element_transitions</title>
<path fill="none" stroke="black" d="M755.11,-158.37C828.49,-151.02 1040.67,-129.42 1216.63,-108 1227.12,-106.72 1238.09,-105.33 1248.99,-103.91"/>
<polygon fill="black" stroke="black" points="1249.51,-107.37 1258.97,-102.6 1248.6,-100.43 1249.51,-107.37"/>
</g>
<!-- tutorial -->
<g id="node16" class="node">
<title>tutorial</title>
<ellipse fill="none" stroke="black" cx="1516.63" cy="-90" rx="38.86" ry="18"/>
<text text-anchor="middle" x="1516.63" y="-85.8" font-family="Times,serif" font-size="14.00">tutorial</text>
</g>
<!-- root&#45;&gt;tutorial -->
<g id="edge16" class="edge">
<title>root&#45;&gt;tutorial</title>
<path fill="none" stroke="black" d="M755.74,-160.03C871.9,-155.75 1328.21,-137.33 1468.63,-108 1471.88,-107.32 1475.2,-106.48 1478.51,-105.53"/>
<polygon fill="black" stroke="black" points="1479.83,-108.79 1488.31,-102.44 1477.72,-102.11 1479.83,-108.79"/>
</g>
<!-- yandex_map -->
<g id="node17" class="node">
<title>yandex_map</title>
<ellipse fill="none" stroke="black" cx="1633.63" cy="-90" rx="60.26" ry="18"/>
<text text-anchor="middle" x="1633.63" y="-85.8" font-family="Times,serif" font-size="14.00">yandex_map</text>
</g>
<!-- root&#45;&gt;yandex_map -->
<g id="edge18" class="edge">
<title>root&#45;&gt;yandex_map</title>
<path fill="none" stroke="black" d="M755.89,-161.03C860.94,-160.78 1249.48,-156.42 1564.63,-108 1569.97,-107.18 1575.5,-106.14 1580.99,-104.99"/>
<polygon fill="black" stroke="black" points="1581.81,-108.39 1590.81,-102.81 1580.29,-101.56 1581.81,-108.39"/>
</g>
</g>
</svg>
